<mxfile host="app.diagrams.net" agent="Mozilla/5.0 (X11; Linux x86_64) AppleWebKit/537.36 (KHTML, like Gecko) Chrome/141.0.0.0 Safari/537.36" version="28.2.7">
  <diagram id="elastic-stack-diagram" name="Elastic Stack Architecture">
    <mxGraphModel dx="719" dy="372" grid="1" gridSize="11" guides="1" tooltips="1" connect="1" arrows="1" fold="1" page="1" pageScale="1" pageWidth="850" pageHeight="1100" math="0" shadow="0">
      <root>
        <mxCell id="0" />
        <mxCell id="1" parent="0" />
        <mxCell id="eHzWIXnUUWUC3OV752Zy-10" value="" style="rounded=0;whiteSpace=wrap;html=1;strokeWidth=1;spacingTop=0;spacing=2;textShadow=0;" parent="1" vertex="1">
          <mxGeometry x="173" y="133" width="503" height="340" as="geometry" />
        </mxCell>
        <mxCell id="eHzWIXnUUWUC3OV752Zy-11" value="&lt;div&gt;React&lt;/div&gt;&lt;div&gt;Spa - Frontend&lt;/div&gt;" style="image;aspect=fixed;html=1;points=[];align=center;fontSize=8;image=img/lib/azure2/other/Worker_Container_App.svg;" parent="1" vertex="1">
          <mxGeometry x="260.5" y="182" width="46" height="44.65" as="geometry" />
        </mxCell>
        <mxCell id="eHzWIXnUUWUC3OV752Zy-68" style="edgeStyle=orthogonalEdgeStyle;rounded=0;orthogonalLoop=1;jettySize=auto;html=1;" parent="1" source="eHzWIXnUUWUC3OV752Zy-15" target="eHzWIXnUUWUC3OV752Zy-16" edge="1">
          <mxGeometry relative="1" as="geometry" />
        </mxCell>
        <mxCell id="eHzWIXnUUWUC3OV752Zy-69" value="Dapr Service Invocation API&lt;div&gt;Internal Ingress&lt;/div&gt;" style="edgeLabel;html=1;align=center;verticalAlign=middle;resizable=0;points=[];fontSize=8;" parent="eHzWIXnUUWUC3OV752Zy-68" vertex="1" connectable="0">
          <mxGeometry x="0.027" relative="1" as="geometry">
            <mxPoint y="32" as="offset" />
          </mxGeometry>
        </mxCell>
        <mxCell id="eHzWIXnUUWUC3OV752Zy-93" style="edgeStyle=orthogonalEdgeStyle;rounded=0;orthogonalLoop=1;jettySize=auto;html=1;" parent="1" source="eHzWIXnUUWUC3OV752Zy-15" target="eHzWIXnUUWUC3OV752Zy-17" edge="1">
          <mxGeometry relative="1" as="geometry">
            <Array as="points">
              <mxPoint x="407" y="407" />
            </Array>
          </mxGeometry>
        </mxCell>
        <mxCell id="eHzWIXnUUWUC3OV752Zy-94" value="&lt;span style=&quot;font-size: 8px;&quot;&gt;OTel via Http/protobuf&lt;/span&gt;" style="edgeLabel;html=1;align=center;verticalAlign=middle;resizable=0;points=[];" parent="eHzWIXnUUWUC3OV752Zy-93" vertex="1" connectable="0">
          <mxGeometry x="-0.5379" y="2" relative="1" as="geometry">
            <mxPoint x="6" y="-10" as="offset" />
          </mxGeometry>
        </mxCell>
        <mxCell id="eHzWIXnUUWUC3OV752Zy-15" value="&lt;span style=&quot;background-color: light-dark(#ffffff, var(--ge-dark-color, #121212)); color: light-dark(rgb(0, 0, 0), rgb(255, 255, 255));&quot;&gt;Golang&lt;/span&gt;&lt;div&gt;&lt;span style=&quot;background-color: light-dark(#ffffff, var(--ge-dark-color, #121212)); color: light-dark(rgb(0, 0, 0), rgb(255, 255, 255));&quot;&gt;HTTP Streamable MCP&lt;/span&gt;&lt;/div&gt;" style="image;aspect=fixed;html=1;points=[];align=center;fontSize=8;image=img/lib/azure2/other/Worker_Container_App.svg;" parent="1" vertex="1">
          <mxGeometry x="510" y="395.35" width="46" height="44.65" as="geometry" />
        </mxCell>
        <mxCell id="eHzWIXnUUWUC3OV752Zy-91" style="edgeStyle=orthogonalEdgeStyle;rounded=0;orthogonalLoop=1;jettySize=auto;html=1;entryX=0.855;entryY=0.955;entryDx=0;entryDy=0;entryPerimeter=0;" parent="1" source="eHzWIXnUUWUC3OV752Zy-16" target="eHzWIXnUUWUC3OV752Zy-17" edge="1">
          <mxGeometry relative="1" as="geometry">
            <Array as="points">
              <mxPoint x="423" y="264" />
              <mxPoint x="423" y="227" />
            </Array>
          </mxGeometry>
        </mxCell>
        <mxCell id="eHzWIXnUUWUC3OV752Zy-92" value="OTel via Http/protobuf" style="edgeLabel;html=1;align=center;verticalAlign=middle;resizable=0;points=[];fontSize=8;" parent="eHzWIXnUUWUC3OV752Zy-91" vertex="1" connectable="0">
          <mxGeometry x="-0.1137" y="-2" relative="1" as="geometry">
            <mxPoint x="12" y="-4" as="offset" />
          </mxGeometry>
        </mxCell>
        <mxCell id="eHzWIXnUUWUC3OV752Zy-16" value="ASP.NET&lt;div&gt;Minimal API&lt;/div&gt;&lt;div&gt;&lt;br&gt;&lt;/div&gt;" style="image;aspect=fixed;html=1;points=[];align=center;fontSize=8;image=img/lib/azure2/other/Worker_Container_App.svg;labelPosition=center;verticalLabelPosition=top;verticalAlign=bottom;spacingTop=0;textShadow=0;" parent="1" vertex="1">
          <mxGeometry x="510" y="258.68" width="46" height="44.65" as="geometry" />
        </mxCell>
        <mxCell id="eHzWIXnUUWUC3OV752Zy-80" style="edgeStyle=orthogonalEdgeStyle;rounded=0;orthogonalLoop=1;jettySize=auto;html=1;" parent="1" source="eHzWIXnUUWUC3OV752Zy-17" edge="1">
          <mxGeometry relative="1" as="geometry">
            <mxPoint x="407" y="99" as="targetPoint" />
          </mxGeometry>
        </mxCell>
        <mxCell id="eHzWIXnUUWUC3OV752Zy-17" value="OpenTelemetry&lt;div&gt;Collector&lt;/div&gt;" style="image;aspect=fixed;html=1;points=[];align=left;fontSize=8;image=img/lib/azure2/other/Worker_Container_App.svg;labelPosition=right;verticalLabelPosition=middle;verticalAlign=middle;" parent="1" vertex="1">
          <mxGeometry x="384" y="184" width="46" height="44.65" as="geometry" />
        </mxCell>
        <mxCell id="eHzWIXnUUWUC3OV752Zy-18" value="Azure Application&lt;div&gt;Insights&lt;/div&gt;" style="image;aspect=fixed;html=1;points=[];align=center;fontSize=8;image=img/lib/azure2/devops/Application_Insights.svg;" parent="1" vertex="1">
          <mxGeometry x="260.5" y="65" width="20.95" height="30" as="geometry" />
        </mxCell>
        <mxCell id="eHzWIXnUUWUC3OV752Zy-19" value="Azure Monitor" style="image;aspect=fixed;html=1;points=[];align=center;fontSize=8;image=img/lib/azure2/management_governance/Monitor.svg;labelPosition=center;verticalLabelPosition=top;verticalAlign=bottom;" parent="1" vertex="1">
          <mxGeometry x="392" y="63" width="30" height="30" as="geometry" />
        </mxCell>
        <mxCell id="eHzWIXnUUWUC3OV752Zy-20" value="Azure Log Analytics&lt;div&gt;Workspace&lt;/div&gt;" style="image;aspect=fixed;html=1;points=[];align=center;fontSize=8;image=img/lib/azure2/analytics/Log_Analytics_Workspaces.svg;" parent="1" vertex="1">
          <mxGeometry x="525" y="64" width="31" height="31" as="geometry" />
        </mxCell>
        <mxCell id="eHzWIXnUUWUC3OV752Zy-21" value="Cosmos DB" style="image;aspect=fixed;html=1;points=[];align=center;fontSize=8;image=img/lib/azure2/databases/Azure_Cosmos_DB.svg;" parent="1" vertex="1">
          <mxGeometry x="715.8499999999999" y="430" width="41" height="41" as="geometry" />
        </mxCell>
        <mxCell id="eHzWIXnUUWUC3OV752Zy-22" value="&lt;font style=&quot;font-size: 8px;&quot;&gt;Azure Container Apps Environment&lt;/font&gt;" style="rounded=0;whiteSpace=wrap;html=1;align=left;spacingLeft=10;fontStyle=1;fillColor=#F6F6F6;strokeColor=#F2F2F2;" parent="1" vertex="1">
          <mxGeometry x="174" y="440" width="175" height="32" as="geometry" />
        </mxCell>
        <mxCell id="eHzWIXnUUWUC3OV752Zy-23" value="Service Bus" style="image;aspect=fixed;html=1;points=[];align=center;fontSize=8;image=img/lib/azure2/general/Service_Bus.svg;labelPosition=center;verticalLabelPosition=top;verticalAlign=bottom;" parent="1" vertex="1">
          <mxGeometry x="718.47" y="152" width="37.34" height="32" as="geometry" />
        </mxCell>
        <mxCell id="eHzWIXnUUWUC3OV752Zy-24" value="Avatar Store Azure&lt;div&gt;Blob&amp;nbsp;&lt;span style=&quot;background-color: light-dark(#ffffff, var(--ge-dark-color, #121212)); color: light-dark(rgb(0, 0, 0), rgb(255, 255, 255));&quot;&gt;Storage&lt;/span&gt;&lt;/div&gt;" style="image;sketch=0;aspect=fixed;html=1;points=[];align=center;fontSize=8;image=img/lib/mscae/BlobBlock.svg;" parent="1" vertex="1">
          <mxGeometry x="723.0600000000001" y="299" width="28.16" height="23.65" as="geometry" />
        </mxCell>
        <mxCell id="eHzWIXnUUWUC3OV752Zy-25" value="Azure&lt;div&gt;Key Vault&lt;/div&gt;" style="image;aspect=fixed;html=1;points=[];align=center;fontSize=12;image=img/lib/azure2/security/Key_Vaults.svg;opacity=60;" parent="1" vertex="1">
          <mxGeometry x="402" y="523" width="62" height="62" as="geometry" />
        </mxCell>
        <mxCell id="eHzWIXnUUWUC3OV752Zy-28" value="" style="rounded=0;whiteSpace=wrap;html=1;labelBackgroundColor=light-dark(#99CCFF,#A9C5ED);fillColor=#F6F6F6;fontColor=#ffffff;strokeColor=#A8A8A8;" parent="1" vertex="1">
          <mxGeometry x="93" y="286" width="66" height="154" as="geometry" />
        </mxCell>
        <mxCell id="eHzWIXnUUWUC3OV752Zy-47" style="edgeStyle=orthogonalEdgeStyle;rounded=0;orthogonalLoop=1;jettySize=auto;html=1;entryX=-0.045;entryY=0.508;entryDx=0;entryDy=0;entryPerimeter=0;" parent="1" target="eHzWIXnUUWUC3OV752Zy-16" edge="1">
          <mxGeometry relative="1" as="geometry">
            <mxPoint x="159" y="319" as="sourcePoint" />
            <Array as="points">
              <mxPoint x="335" y="319" />
              <mxPoint x="335" y="281" />
              <mxPoint x="508" y="281" />
            </Array>
          </mxGeometry>
        </mxCell>
        <mxCell id="eHzWIXnUUWUC3OV752Zy-27" value="API Managment&lt;div&gt;Gateway&lt;/div&gt;" style="image;aspect=fixed;html=1;points=[];align=center;fontSize=8;image=img/lib/azure2/app_services/API_Management_Services.svg;" parent="1" vertex="1">
          <mxGeometry x="102.78999999999999" y="299" width="46.41" height="43" as="geometry" />
        </mxCell>
        <mxCell id="eHzWIXnUUWUC3OV752Zy-29" value="" style="group" parent="1" vertex="1" connectable="0">
          <mxGeometry x="85" y="184" width="82" height="61.5" as="geometry" />
        </mxCell>
        <mxCell id="eHzWIXnUUWUC3OV752Zy-3" value="Public Internet" style="sketch=0;html=1;aspect=fixed;strokeColor=none;shadow=0;fillColor=#3B8DF1;verticalAlign=top;labelPosition=center;verticalLabelPosition=bottom;shape=mxgraph.gcp2.globe_world;fontSize=7;" parent="eHzWIXnUUWUC3OV752Zy-29" vertex="1">
          <mxGeometry x="18.45" width="47.833333333333336" height="45.44166666666667" as="geometry" />
        </mxCell>
        <mxCell id="eHzWIXnUUWUC3OV752Zy-7" value="HTTP" style="text;align=center;verticalAlign=middle;rounded=0;fontSize=8;fontStyle=1;labelBackgroundColor=default;textShadow=0;" parent="eHzWIXnUUWUC3OV752Zy-29" vertex="1">
          <mxGeometry y="20.5" width="82" height="41" as="geometry" />
        </mxCell>
        <mxCell id="eHzWIXnUUWUC3OV752Zy-36" style="edgeStyle=orthogonalEdgeStyle;rounded=0;orthogonalLoop=1;jettySize=auto;html=1;entryX=0.5;entryY=0;entryDx=0;entryDy=0;" parent="1" source="eHzWIXnUUWUC3OV752Zy-7" target="eHzWIXnUUWUC3OV752Zy-28" edge="1">
          <mxGeometry relative="1" as="geometry" />
        </mxCell>
        <mxCell id="eHzWIXnUUWUC3OV752Zy-37" style="edgeStyle=orthogonalEdgeStyle;rounded=0;orthogonalLoop=1;jettySize=auto;html=1;exitX=0.838;exitY=0.054;exitDx=0;exitDy=0;exitPerimeter=0;entryX=0.044;entryY=0.549;entryDx=0;entryDy=0;entryPerimeter=0;" parent="1" target="eHzWIXnUUWUC3OV752Zy-11" edge="1">
          <mxGeometry relative="1" as="geometry">
            <mxPoint x="153.71599999999995" y="206.71400000000006" as="sourcePoint" />
            <mxPoint x="228" y="209.01149425287355" as="targetPoint" />
            <Array as="points" />
          </mxGeometry>
        </mxCell>
        <mxCell id="eHzWIXnUUWUC3OV752Zy-38" value="External Ingress" style="edgeLabel;html=1;align=center;verticalAlign=middle;resizable=0;points=[];fontSize=7;" parent="eHzWIXnUUWUC3OV752Zy-37" vertex="1" connectable="0">
          <mxGeometry x="-0.1681" y="2" relative="1" as="geometry">
            <mxPoint x="15" as="offset" />
          </mxGeometry>
        </mxCell>
        <mxCell id="eHzWIXnUUWUC3OV752Zy-45" value="" style="group;opacity=40;fontSize=10;" parent="1" vertex="1" connectable="0">
          <mxGeometry x="74.55" y="523" width="277.5" height="83" as="geometry" />
        </mxCell>
        <mxCell id="eHzWIXnUUWUC3OV752Zy-39" value="Azure Container&lt;div&gt;Registry&lt;/div&gt;" style="image;aspect=fixed;html=1;points=[];align=center;fontSize=12;image=img/lib/azure2/containers/Container_Registries.svg;opacity=60;" parent="eHzWIXnUUWUC3OV752Zy-45" vertex="1">
          <mxGeometry x="209.5" width="68" height="61" as="geometry" />
        </mxCell>
        <mxCell id="eHzWIXnUUWUC3OV752Zy-40" value="" style="endArrow=none;html=1;rounded=0;opacity=60;" parent="eHzWIXnUUWUC3OV752Zy-45" edge="1">
          <mxGeometry width="50" height="50" relative="1" as="geometry">
            <mxPoint x="143" y="83" as="sourcePoint" />
            <mxPoint x="198" y="83" as="targetPoint" />
          </mxGeometry>
        </mxCell>
        <mxCell id="eHzWIXnUUWUC3OV752Zy-41" value="" style="endArrow=none;html=1;rounded=0;opacity=60;" parent="eHzWIXnUUWUC3OV752Zy-45" edge="1">
          <mxGeometry width="50" height="50" relative="1" as="geometry">
            <mxPoint x="77" y="33" as="sourcePoint" />
            <mxPoint x="143" y="83" as="targetPoint" />
          </mxGeometry>
        </mxCell>
        <mxCell id="eHzWIXnUUWUC3OV752Zy-42" value="ACR to host the&amp;nbsp;&lt;div&gt;container images&lt;/div&gt;" style="text;html=1;align=center;verticalAlign=middle;whiteSpace=wrap;rounded=0;fontSize=10;" parent="eHzWIXnUUWUC3OV752Zy-45" vertex="1">
          <mxGeometry width="128" height="30" as="geometry" />
        </mxCell>
        <mxCell id="eHzWIXnUUWUC3OV752Zy-48" style="edgeStyle=orthogonalEdgeStyle;rounded=0;orthogonalLoop=1;jettySize=auto;html=1;entryX=0.021;entryY=0.507;entryDx=0;entryDy=0;entryPerimeter=0;" parent="1" target="eHzWIXnUUWUC3OV752Zy-15" edge="1">
          <mxGeometry relative="1" as="geometry">
            <mxPoint x="159" y="341" as="sourcePoint" />
            <Array as="points">
              <mxPoint x="335" y="341" />
              <mxPoint x="335" y="418" />
            </Array>
          </mxGeometry>
        </mxCell>
        <mxCell id="eHzWIXnUUWUC3OV752Zy-70" value="Azure AI&lt;div&gt;Search&lt;/div&gt;" style="image;aspect=fixed;html=1;points=[];align=center;fontSize=8;image=img/lib/azure2/app_services/Search_Services.svg;" parent="1" vertex="1">
          <mxGeometry x="716.8799999999999" y="363.26" width="38.93" height="28.12" as="geometry" />
        </mxCell>
        <mxCell id="eHzWIXnUUWUC3OV752Zy-71" style="edgeStyle=orthogonalEdgeStyle;rounded=0;orthogonalLoop=1;jettySize=auto;html=1;entryX=0.068;entryY=0.484;entryDx=0;entryDy=0;entryPerimeter=0;exitX=1.011;exitY=0.138;exitDx=0;exitDy=0;exitPerimeter=0;" parent="1" source="eHzWIXnUUWUC3OV752Zy-16" target="eHzWIXnUUWUC3OV752Zy-23" edge="1">
          <mxGeometry relative="1" as="geometry">
            <Array as="points">
              <mxPoint x="698" y="265" />
              <mxPoint x="698" y="167" />
              <mxPoint x="715" y="167" />
            </Array>
          </mxGeometry>
        </mxCell>
        <mxCell id="eHzWIXnUUWUC3OV752Zy-72" value="Dapr-Publish API" style="edgeLabel;html=1;align=center;verticalAlign=middle;resizable=0;points=[];fontSize=8;" parent="eHzWIXnUUWUC3OV752Zy-71" vertex="1" connectable="0">
          <mxGeometry x="-0.1816" relative="1" as="geometry">
            <mxPoint x="-37" as="offset" />
          </mxGeometry>
        </mxCell>
        <mxCell id="eHzWIXnUUWUC3OV752Zy-73" style="edgeStyle=orthogonalEdgeStyle;rounded=0;orthogonalLoop=1;jettySize=auto;html=1;entryX=0.961;entryY=0.46;entryDx=0;entryDy=0;entryPerimeter=0;" parent="1" source="eHzWIXnUUWUC3OV752Zy-23" target="eHzWIXnUUWUC3OV752Zy-16" edge="1">
          <mxGeometry relative="1" as="geometry">
            <Array as="points">
              <mxPoint x="737" y="279" />
            </Array>
          </mxGeometry>
        </mxCell>
        <mxCell id="eHzWIXnUUWUC3OV752Zy-74" value="Dapr-Subscribe API" style="edgeLabel;html=1;align=center;verticalAlign=middle;resizable=0;points=[];fontSize=8;" parent="eHzWIXnUUWUC3OV752Zy-73" vertex="1" connectable="0">
          <mxGeometry x="0.2233" relative="1" as="geometry">
            <mxPoint x="-30" y="-1" as="offset" />
          </mxGeometry>
        </mxCell>
        <mxCell id="eHzWIXnUUWUC3OV752Zy-75" style="edgeStyle=orthogonalEdgeStyle;rounded=0;orthogonalLoop=1;jettySize=auto;html=1;entryX=0.016;entryY=0.556;entryDx=0;entryDy=0;entryPerimeter=0;" parent="1" source="eHzWIXnUUWUC3OV752Zy-16" target="eHzWIXnUUWUC3OV752Zy-24" edge="1">
          <mxGeometry relative="1" as="geometry">
            <Array as="points">
              <mxPoint x="709" y="297" />
              <mxPoint x="709" y="312" />
            </Array>
          </mxGeometry>
        </mxCell>
        <mxCell id="eHzWIXnUUWUC3OV752Zy-76" value="Dapr-State Store API" style="edgeLabel;html=1;align=center;verticalAlign=middle;resizable=0;points=[];fontSize=8;" parent="eHzWIXnUUWUC3OV752Zy-75" vertex="1" connectable="0">
          <mxGeometry x="-0.3927" y="1" relative="1" as="geometry">
            <mxPoint x="23" as="offset" />
          </mxGeometry>
        </mxCell>
        <mxCell id="eHzWIXnUUWUC3OV752Zy-77" style="edgeStyle=orthogonalEdgeStyle;rounded=0;orthogonalLoop=1;jettySize=auto;html=1;entryX=0.983;entryY=0.604;entryDx=0;entryDy=0;entryPerimeter=0;exitX=0.91;exitY=0.499;exitDx=0;exitDy=0;exitPerimeter=0;" parent="1" source="eHzWIXnUUWUC3OV752Zy-21" target="eHzWIXnUUWUC3OV752Zy-70" edge="1">
          <mxGeometry relative="1" as="geometry">
            <Array as="points">
              <mxPoint x="776" y="451" />
              <mxPoint x="776" y="380" />
            </Array>
          </mxGeometry>
        </mxCell>
        <mxCell id="eHzWIXnUUWUC3OV752Zy-78" style="edgeStyle=orthogonalEdgeStyle;rounded=0;orthogonalLoop=1;jettySize=auto;html=1;entryX=0.046;entryY=0.78;entryDx=0;entryDy=0;entryPerimeter=0;exitX=0.824;exitY=1.067;exitDx=0;exitDy=0;exitPerimeter=0;" parent="1" source="eHzWIXnUUWUC3OV752Zy-16" target="eHzWIXnUUWUC3OV752Zy-70" edge="1">
          <mxGeometry relative="1" as="geometry">
            <Array as="points">
              <mxPoint x="548" y="308" />
              <mxPoint x="698" y="308" />
              <mxPoint x="698" y="385" />
            </Array>
          </mxGeometry>
        </mxCell>
        <mxCell id="eHzWIXnUUWUC3OV752Zy-79" style="edgeStyle=orthogonalEdgeStyle;rounded=0;orthogonalLoop=1;jettySize=auto;html=1;entryX=0.02;entryY=0.58;entryDx=0;entryDy=0;entryPerimeter=0;" parent="1" source="eHzWIXnUUWUC3OV752Zy-16" target="eHzWIXnUUWUC3OV752Zy-21" edge="1">
          <mxGeometry relative="1" as="geometry">
            <Array as="points">
              <mxPoint x="544" y="319" />
              <mxPoint x="682" y="319" />
              <mxPoint x="682" y="454" />
            </Array>
          </mxGeometry>
        </mxCell>
        <mxCell id="eHzWIXnUUWUC3OV752Zy-84" style="edgeStyle=orthogonalEdgeStyle;rounded=0;orthogonalLoop=1;jettySize=auto;html=1;exitX=0.75;exitY=0;exitDx=0;exitDy=0;entryX=0.02;entryY=0.505;entryDx=0;entryDy=0;entryPerimeter=0;" parent="1" source="eHzWIXnUUWUC3OV752Zy-7" target="eHzWIXnUUWUC3OV752Zy-17" edge="1">
          <mxGeometry relative="1" as="geometry">
            <Array as="points">
              <mxPoint x="147" y="165" />
              <mxPoint x="368" y="165" />
              <mxPoint x="368" y="206" />
            </Array>
          </mxGeometry>
        </mxCell>
        <mxCell id="eHzWIXnUUWUC3OV752Zy-85" value="OpenTelemtry via Http/protobuf&lt;div&gt;External Ingress&lt;/div&gt;" style="edgeLabel;html=1;align=center;verticalAlign=middle;resizable=0;points=[];fontSize=8;" parent="eHzWIXnUUWUC3OV752Zy-84" vertex="1" connectable="0">
          <mxGeometry x="-0.0455" y="-1" relative="1" as="geometry">
            <mxPoint y="-1" as="offset" />
          </mxGeometry>
        </mxCell>
        <mxCell id="eHzWIXnUUWUC3OV752Zy-86" value="Zoho&lt;div&gt;Email&lt;/div&gt;" style="sketch=0;points=[[0,0,0],[0.25,0,0],[0.5,0,0],[0.75,0,0],[1,0,0],[0,1,0],[0.25,1,0],[0.5,1,0],[0.75,1,0],[1,1,0],[0,0.25,0],[0,0.5,0],[0,0.75,0],[1,0.25,0],[1,0.5,0],[1,0.75,0]];outlineConnect=0;fontColor=#232F3E;gradientColor=#4D72F3;gradientDirection=north;fillColor=#3334B9;strokeColor=#ffffff;dashed=0;verticalLabelPosition=top;verticalAlign=bottom;align=center;html=1;fontSize=8;fontStyle=0;aspect=fixed;shape=mxgraph.aws4.resourceIcon;resIcon=mxgraph.aws4.simple_email_service;labelPosition=center;" parent="1" vertex="1">
          <mxGeometry x="718.47" y="66" width="33" height="33" as="geometry" />
        </mxCell>
        <mxCell id="eHzWIXnUUWUC3OV752Zy-87" style="edgeStyle=orthogonalEdgeStyle;rounded=0;orthogonalLoop=1;jettySize=auto;html=1;" parent="1" source="eHzWIXnUUWUC3OV752Zy-16" target="eHzWIXnUUWUC3OV752Zy-86" edge="1">
          <mxGeometry relative="1" as="geometry">
            <mxPoint x="709" y="88" as="targetPoint" />
            <Array as="points">
              <mxPoint x="533" y="253" />
              <mxPoint x="687" y="253" />
              <mxPoint x="687" y="80" />
            </Array>
          </mxGeometry>
        </mxCell>
        <mxCell id="eHzWIXnUUWUC3OV752Zy-88" value="SMTP" style="edgeLabel;html=1;align=center;verticalAlign=middle;resizable=0;points=[];fontSize=8;" parent="eHzWIXnUUWUC3OV752Zy-87" vertex="1" connectable="0">
          <mxGeometry x="-0.4993" relative="1" as="geometry">
            <mxPoint x="-11" as="offset" />
          </mxGeometry>
        </mxCell>
        <mxCell id="eHzWIXnUUWUC3OV752Zy-89" value="" style="endArrow=classic;startArrow=classic;html=1;rounded=0;entryX=0.015;entryY=0.524;entryDx=0;entryDy=0;entryPerimeter=0;exitX=0.876;exitY=0.43;exitDx=0;exitDy=0;exitPerimeter=0;" parent="1" source="eHzWIXnUUWUC3OV752Zy-18" target="eHzWIXnUUWUC3OV752Zy-19" edge="1">
          <mxGeometry width="50" height="50" relative="1" as="geometry">
            <mxPoint x="324" y="116" as="sourcePoint" />
            <mxPoint x="374" y="66" as="targetPoint" />
          </mxGeometry>
        </mxCell>
        <mxCell id="eHzWIXnUUWUC3OV752Zy-90" value="" style="endArrow=classic;startArrow=classic;html=1;rounded=0;exitX=0.913;exitY=0.572;exitDx=0;exitDy=0;exitPerimeter=0;entryX=0.08;entryY=0.533;entryDx=0;entryDy=0;entryPerimeter=0;" parent="1" source="eHzWIXnUUWUC3OV752Zy-19" target="eHzWIXnUUWUC3OV752Zy-20" edge="1">
          <mxGeometry width="50" height="50" relative="1" as="geometry">
            <mxPoint x="456" y="94" as="sourcePoint" />
            <mxPoint x="506" y="44" as="targetPoint" />
          </mxGeometry>
        </mxCell>
        <mxCell id="eHzWIXnUUWUC3OV752Zy-106" value="" style="group;opacity=60;" parent="1" vertex="1" connectable="0">
          <mxGeometry x="506" y="520" width="255.22000000000003" height="81" as="geometry" />
        </mxCell>
        <mxCell id="eHzWIXnUUWUC3OV752Zy-96" value="Auth0&#xa;OAuth2.1 | OIDC" style="shape=image;verticalLabelPosition=bottom;labelBackgroundColor=default;verticalAlign=top;aspect=fixed;imageAspect=0;image=data:image/png,iVBORw0KGgoAAAANSUhEUgAAAyAAAAMgCAYAAADbcAZoAAAQAElEQVR4Aey9C7xtVVn/vc+LgqhEkm/iW/7prX/5R0QwBMGEMLxACmooZpmp2cVbFy9pmahZ3lNT0VLxXoqAIKCggAoICohcDkppmqQmkZCCgnLx/H+/s9dm77PPusy51hhz3L7n8zxnzLXWnM94nu8z19zzWXOMOf+fJf5BAAIQgAAEIAABCEAAAhAYiAAFyECg6QYCWxPgHQhAAAIQgAAEINAeAQqQ9nJOxBCAAAQgAAEIQAACEEhGgAIkGXo6hgAEIAABCEAAAu0RIGIIUICwD0AAAhCAAAQgAAEIQAACgxGgABkM9fqOeA0BCEAAAhCAAAQgAIH2CFCAtJdzIoYABCAAAQhAAAIQgEAyAhQgydDTMQQgAAEIQKA9AkQMAQhAgAKEfQACEIAABCAAAQhAAAL1E8gmQgqQbFKBIxCAAAQgAAEIQAACEKifAAVI/TkmwvUEeA0BCEAAAhCAAAQgkIwABUgy9HQMAQhAoD0CRAwBCEAAAhCgAGEfgAAEIAABCEAAAvUTIEIIZEOAAiSbVOAIBCAAAQhAAAIQgAAE6ifQXgFSf06JEAIQgAAEIAABCEAAAtkSoADJNjU4BoH6CBARBCAAAQhAAAIQoABhH4AABCAAAQjUT4AIIQABCGRDgAIkm1TgCAQgAAEIQAACEIBAfQSIaD0BCpD1RHgNAQhAAAIQgAAEIAABCEQjQAESDS2G1xPgNQQgAAEIQAACEIAABChA2AcgAAEI1E+ACCEAAQhAAALZEKAAySYVOAIBCEAAAhCAQH0EiAgCEFhPgAJkPRFeQwACEIAABCAAAQhAAALRCAxWgESLAMMQgAAEIAABCEAAAhCAQDEEKECKSRWOQmBuAmwIAQhAAAIQgAAEsiFAAZJNKnAEAhCAAATqI0BEEIAABCCwngAFyHoivIYABCAAAQhAAAIQKJ8AEWRLgAIk29TgGAQgAAEIQAACEIAABOojQAFSX07XR8RrCEAAAhCAAAQgAAEIZEOAAiSbVOAIBCBQHwEiggAEIAABCEBgPQEKkPVEeA0BCEAAAhCAQPkEiAACEMiWAAVItqnBMQhAAAIQgAAEIAABCJRHYJbHFCCzCPE5BCAAAQhAAAIQgAAEIBCMAAVIMJQYgsB6AryGAAQgAAEIQAACEFhPgAJkPRFeQwACEIBA+QSIAAIQgAAEsiVAAZJtanAMAhCAAAQgAAEIlEcAjyEwiwAFyCxCfA4BCEAAAhCAAAQgAAEIBCNAARIM5XpDvIYABCAAAQhAAAIQgAAE1hOgAFlPhNcQgED5BIgAAhCAAAQgAIFsCVCAZJsaHIMABCAAAQiURwCPIQABCMwiQAEyixCfQwACEIAABCAAAQhAIH8CxXhIAVJMqnAUAhCAAAQgAAEIQAAC5ROgACk/h0SwngCvIQABCEAAAhCAAASyJUABkm1qcAwCEIBAeQTwGAIQgAAEIDCLAAXILEJ8DgEIQAACEIAABPIngIcQKIYABUgxqcJRCEAAAhCAAAQgAAEIlE+gvgKk/JwQAQQgAAEIQAACEIAABKolQAFSbWoJDALDE6BHCEAAAhCAAAQgMIsABcgsQnwOAQhAAAIQyJ8AHkIAAhAohgAFSDGpwlEIQAACEIAABCAAgfwI4FFfAhQgfYmxfmoCx8iBTegSDJZgwPeAfYB9gH1gtA/4b6MWEQiUQYACpIw8FeHlQE4eOlA/dAMBCEwn8Df6+I1SBAIQSE/Afxu3Te8GHkCgGwEKkG6cWCsPAj7Abp+HK3gBgawIpHDmBHX6YSkCAQikJ+C/jQ9L7wYeQKAbAQqQbpxYKw8Cv5GHG3gBgeYJXCkCX5CeLb1WikCgYQLZhM7fyGxSgSOzCFCAzCLE57kQ2EaOHC5FIACB9ARWrnx4LtLx6d3BAwhAQAT8N9J/K7WIQCBvAsEKkLzDxLsKCByoGHaQIhCAQHoCKwWIPVm77NcoBCCQhoD/RvpvZZre6RUCPQhQgPSAxapJCXBpeTJ+PoHAkAQ85OrcNR2eruXrpQgEIJCeAH8r0+cADzoQoADpAIlVkhPYIA84qAoCAoEMCBwrHzz0Ss1muVX/nyRtVAgbAlkR8N9K/83MyimcgcB6AhQg64nwOkcC+8qpnaUIBCCQnsC4IVfj3kvvKR5AoD0C/lvpv5ltRE6UxRKgACk2dU057ol1TQVMsBDIlICHWp05xrdT9d6NUgQCEEhPwFdB0nuBBxCYQoACZAqcQj5qwc3HtBAkMUKgAAJ+9oeHXK131cWHi5D17/MaAhAYnsBjh++SHiHQjwAFSD9erD08gT3V5S5SBAIZEmjOpWlDraZ91hwoAoZAQgL+m7lHwv7pGgIzCVCAzETECokJcCk5cQLoHgIjArOucngi+rirI6PNaSAQmADmphHgb+c0OnyWnAAFSPIU4MAMAhxEZwDiYwgMROCj6ucm6STx/JBPTPqQ9yEAgUEJ8LdzUNztdbZoxBQgixJk+5gEfBl5t5gdYBsCEOhMoMsQqy7rdO6QFSEAgbkJ3Ftb+m+oGgQC+RGgAMkvJ3i0SuDxq4s5LuETBJoh4Csfp3SI1gXI2meEdNiEVSAAgUgEfjOSXcxCYGECFCALI8RARAJcQo4IF9MQ6EHgDK3rIVZqpoqfkn721DVCfYgdCEBgFgH+hs4ixOfJCFCAJENPxzMI+GFKe89Yh48hAIFhCBzfoxtfBemxOqtCAAKRCOwju/5bqiasYA0CixKgAFmUINvHIvC4WIaxCwEI9CLgO1ud2GOLD/VYl1UhAIG4BHgmSFy+WJ+TAAXInOCWltgwMgEuHUcGjHkIdCTgIVUeWtVx9aWrtOIFUgQCEEhPgL+l6XOAB2MIUICMgcJbyQnsJA/2lyIQGE+Ad4ckMM+Qqnm2GTIm+oJAKwR+VYH6b6oaBAL5EKAAyScXeLJK4HAtbpAiEIBAegLHzeHCB+fYhk0KIYCbRRHw39JHF+UxzjZBgAKkiTQXFySXjItLGQ5XSuB8xeUhVWp6yZVae6MUgQAE0hPgb2r6HITyoBo7FCDVpLKaQHZQJA+RIhCAQHoCiwylWmTb9JHjAQTqIfBgheK/rWoQCORBgAIkjzzgxSqBw7S4jXSy8AkEIDAUgWMW6IgCZAF4bAqBgAS2la1DpQgEsiFAAZJNKnBkRIBLxSMQNBBITMBDqDyUags3ery4TOsusr02RyAAgUAE+NsaCCRmwhCgAAnDESthCGwvM4dIEQhAID2BPg8fnOTtIldQJtnkfQi0SmCRuH9dG/tKiBoEAukJUICkzwEerBJw8eEiZPUdliAAgVQEQgyhCmEjVfz0C4GaCPhvq4uQmmIiloIJlFeAFAwb12cS4BLxTESsAIFBCHjolIdgLdrZvHfRWrRftocABLYmwN/YrZnwTiICFCCJwNPtVgQ88dwT0Lf6gDfyIYAnzRAIOXRqnueINAOaQCEwIIFHqS//rVWDQCAtAQqQtPzpfZWAb73LbQJXebAEgZQEQg6dCmkrJZPUfdM/BBYl4L+xBy1qhO0hEIIABUgIitgIQYBLwyEoYgMCixPwgwc9dGpxS8sWPq3mWikCAQikJ8Df2rlywEahCVCAhCaKvXkIbNBGh0sRCEAgPYHQQ6Y2KaQTpAgEIJCewGPlgv/mqkEgkI4ABUg69sX1HNHh/WV7JykCAQikJxBjyFQMm+lJ4QEEyiPgv7W/Up7beFwbAQqQ2jJaZjxc/Sgzb3g9HIGhevJQqbMjdHaGbF4vRSAAgfQEGIaVPgfNe0AB0vwukAWAI7LwAicgAAEPlbo1AoabZPNkKQKBAglU5zIFSHUpLS8gCpDyclabx3sroJ2lCAQgkJ5AzKFSMW2nJ4cHECiHwC5y9ZelCASSEehcgCTzkI5rJ8AvMbVnmPhKIeAhUh4qFcvfj8mwr4SoQSAAgcQE+NubOAGtd08B0voekD7+x6d3IXsPcBACQxA4RZ3ELBBulH0XIWoQCEAgMQEKkMQJaL17CpDW94C08e+m7n0pWA0CAQgkJjDEEKkh+giMEXMQqJLArorql6QIBJIQoABJgp1ORwT4BWYEggYCiQn4ysdHB/DhRPURY5K7zCIQgEBPAo/puf7wq9NjtQQoQKpNbRGBUYAUkSacbIDAqYrRQ6TURJXY80yiOo9xCFRGgL/BlSW0pHAoQPLPVq0eeujVnrUGR1wQKIzAkEOjhuyrsDTgLgQGJbCXeuMulIKADE+AAmR45vS4TOCxyw3/QyBnAk345iFRfv7HUMEep442SREIQCA9gd9M7wIetEiAAqTFrOcRM5d+88gDXkDgTCHw0Cg1g4iftn7OID3RSdkE8H4IAvwtHoIyfWxFgAJkKyS8MQABX/Ldd4B+6AICEJhNIMWQqBR9zibBGhBoj8ADFfJOUgQCWxCI/YICJDZh7I8j4F9cNoz7gPcgAIFBCXgo1LGD9rjc2THLDf9DAAKJCfhvMXfDSpyEFrunAGkx6+ljdgGS3ouZHrACBKoncK4i9JAoNYPKVert81IEAhBIT+Dw9C7gQWsEKEBay3j6eHeQCwdKEQhAID2BlEOhpvedng0eQKAVAgcpUP9tVoNAYBgCFCDDcKaXVQL+pWWb1ZcsQQACCQmkLAL+OWHcdA0BCKwS8N/kR62+XFpiGQKxCVCAxCaM/fUEGH61ngivIZCGwBfU7ZXSVOK+v5iqc/qFAAS2IMDf5i1w8CI2AQqQiYT5IAKB7WXzYVIEAhBIT+D49C4spbwCk0H4uACBbAj8ujzx32g1CATiE6AAic+YHlYJHKbFbaUIBKYT4NMhCPiBgEP0M60PCpBpdPgMAsMR8N9mFyHD9UhPTROgAGk6/YMHzyXewZHTIQTGErhC735ZmloukQMeiqUGyYUAfjRLgL/RzaZ++MApQIZn3mqP/nXl0FaDJ24IZEYgpysPKZ5Dklk6cAcCWRDw32j/rc7CmUadaCZsCpBmUp08UM/9YHxp8jTgAAQ2E8ipAMnJl81w+A8CjRLwrXh9S95GwyfsIQlQgAxJu+2+ul/abZsT0UMgNgEPefIdsGL309X+57SiH0yoBoEABBIT4G914gS00j0FSCuZThun7zHu53+k9YLeIQABE5h6xcErDKyb1F8Od+SSGwgEmifgAmRD8xQAEJ0ABUh0xHQgAgdKfWlXDQIBCCQmkFsBYhw5+mS/UAgMSSCHvnaSEwdIEQhEJUABEhUvxkcE/IvKaJEGAhBISOBa9X2uNDc5Sw7ZNzUIBCCQmAB/sxMnoIXu8ytAWqDeVoy+lMvBrK2cE22+BD4k1zzkSU1Wcqu8+YgUgQAE0hM4Ir0LeFA7AQqQ2jOcPr795MLOUqQAArhYPYGchzrl7Fv1OwYBQmANAf/N3nvNaxYhEJwABUhwpBhcR4CrH+uA8BICiQhcr34/Kc1VPiHHbpS2KsQNgZwI8Lc7p2xU6AsFSIVJzSykx2TmD+5AoFUCJyhwD3VSk6XcIWtqRQAAEABJREFUJK8YhiUICAQyIPD4DHwY0AW6GpoABcjQxNvqb0+Fu4sUgQAE0hMoYYhTCT6mzyQeQCA+Af/t3i1+N/TQKgEKkFYzPybuCG9xCTcCVExCYA4CHtp06hzbDb3JKerQV0LUIBCAQGIC/A1PnICau6cAqTm76WPj4JU+B3hQBoHYXn5UHZRwYl9KoSScCASqJ8Df8OpTnC5ACpB07Gvvmcu3tWeY+EoiUNLQppJ8LWkfwNeJBPhgAgGGUU8Aw9uLE6AAWZwhFsYT+K3xb/MuBCAwMAFf+fDQpoG7nbu73CfLzx0YG0KgQALcSKbApJXg8m0FSAnO4mNRBLh0W1S6cLZiAqcrNt+CV00RYl9zvl1wERBxEgKBCPC3PBBIzGxJgAJkSx68CkPADzG6XxhTTVghSAjEJFDikKYSfY6ZQ2xDIBWB/dSx/6arQSAQjgAFSDiWWFol8LjVRZYgAIGEBPzcjxMT9j9v1x/ShpukAwhdQAACUwhs0GdcBREEJCwBCpCwPLG2TICD1TIH/odAagJny4FrpaWJfT63NKfxFwKVEoj3N71SYIQ1mwAFyGxGrNGPwE5afX8pAgEIpCdQ8lCmkn1Pn3k8gEA4AgfK1A5SBALBCFCABEM5t6HaNjxcAfmSrRoEAhBITOC4xP0v0j0FyCL02BYC4QhsI1P+264GgUAYAhQgYThiZZUAl2pXWbCUPYGqHTxf0V0lLVWulOMXSREIQCA9Af62p89BVR5QgFSVzuTB+BLtQ5J7gQMQgIAJ1HAFoYYYnAt0HAHeK4nAw+Ts9lIEAkEIUIAEwYiREYFHqvWlWjUIBCCQmMAxifsP0X3JQ8hCxI8NCORCYFs5cqgUqYRA6jAoQFJnoK7+uURbVz6JplwCl8l1D2FSU7R8Wd5fIUUgAIH0BPgbnz4H1XhAAVJNKpMH4kuzByf3opcDrAyBagnUNHTp+GqzRGAQKIvAYXLXV0LUIBBYjAAFyGL82HqVwCFadBGiBoEABBITyL8A6Q6opli6R82aEMiPgP/GPzQ/t/CoRAIUICVmLU+fuTSbZ17wqj0CHnq1saKwL1YsjkkNAgEIhCCwgA3+1i8Aj01XCVCArLJgaX4CnnjuS7PzW2BLCEAgFIEaJp+vZ8EwrPVEeA2BNAS42Uwa7tX12nABUl0uUwbkW+/6FrwpfaBvCEBgmUCNQ5ZqjGk5W/wPgbII7CR3f1WKQGAhAhQgC+Fj4xEBLsmOQNB0JMBqsQj4wYN+AGEs+6nsnqeOHZsaBAIQSEyAv/mJE1BD9xQgNWQxbQwb1P3hUgQCEEhP4Nj0LkTxYJOsniBFAhDABAQWJMDf/AUBsvnSEgUIe8GiBA6QAV+SVYNAAAKJCdQ8VKnm2BLvNnQPgV4Edtba+0qR/gTYYkSAAmQEgmZuAlyKnRsdG0IgKIFrZe0saa3yKQV2vRSBAATSE+Bvf/ocFO0BBUjR6cvC+SN6e8EGEIBADAIeouShSjFs52DzVjnB3bAEAYFABgT4259BEkp2gQKk5Oyl931vueBLsWoQCEAgMYFOQ5QS+7ho9y3EuCgjtofAEAR2USf3kSIQmIsABchc2NhoRIBLsCMQNBBITMBDk85I7MMQ3X9cndwoRSBQIoHafOYcoLaMDhgPBciAsCvs6vEVxkRIECiRwCly+iZp7eIYT649SOKDQCEEKEAKSVSObg5fgORIAZ/mIbCbNvIlWDUIBCCQmEBLQ5NaijXxbkX3EJhKYHd9ynmAICD9CVCA9GfGFssE+OVjmUNR/+NslQR8VeCjVUY2PqiT9LZjVoNAAAKJCfxm4v7pvlACFCCFJi4Dt3kQUQZJwAUIiMDHpC3Ni3CsnguisIsSnIVAjQT4MbLGrA4QEwXIAJAr7MKXXPeoMC5CgkCJBFocktRizCXum/hcP4F9FGIBd8OUl0hWBChAskpHMc48thhPcRQCdRPwszFOrDvEsdH5eSCOfeyHvAkBCAxKgHOCQXHX0RkFSB157BRFwJW45BoQJqYgsACBM7Wtb8GrpilxzJ9qKmKChUC+BDgnyDc32XpGAZJtarJ1zJda983WOxyDQJ4EYnnV8lCklmOPtT9hFwLzEPhVbbSTFIFAZwIUIJ1RseKIgH/p2DBapoEABNIR2KSuj5W2KicocDNQg0BgGgE+i0zA5wSPjtwH5isjQAFSWUIHCMcFyADd0AUEIDCDwLn6/Fppq3KVAv+sFIEABNIT4NwgfQ7y9GCCVxQgE8Dw9lgCO+jdA6UIBCCQngBDkJaWYJB+P8QDCJjAg/WfzxHUIBCYTYACZDYj1lgl8BgtbiNF+hFgbQjEIMDJ99LScTHAYhMCEOhNYFtt8QgpAoFOBChAOmFipREBLrGOQNBAIDGBi9T/ldLWxQwung6BTyEAgYEIcI4wEOgauqEAqSGLw8Swvbp5qBSBAATSE+Dqx2oOYLHKgiUIpCTwcHXuKyFqRkIDgQkEKEAmgOHtrQgcpnc4sAgCAoEMCDD0aDUJFCCrLFiCQEoC/qHykJQO0Hc5BChA4ueqlh64tFpLJomjdAJXKIAvS5FlAl9SAw9BQCCQAQHOFTJIQgkuUICUkKX0PvrKx6Hp3cADCPQlUOX6/OK/dVq5IrQ1E96BQAoCfh4IN6tJQb6wPilACktYIncfpn59aVUNAgEIJCZAAbJ1AmCyNZP07+BBiwR8K95fazFwYu5HgAKkH69W1+aSaquZJ+7cCPiuT1/IzakM/PFdwfxgwgxcwQUINE+Ac4YMdoHcXaAAyT1D6f3zpdTD07uBBxCAgAjwS78gTJAPTHiftyEAgWEJHKHuNkgRCEwkQAEyEQ0fjAg8SK0vqaopTfAXAtUROL66iMIFRHEWjiWWILAIgZ208QOkCAQmEqAAmYiGD0YEuJQ6AkEDgcQErlX/50nLkOG9PFddmpEaBAIQSEyAc4fECci9ewqQ3DOU1j9fQvUdLdJ6Qe8QgIAJfEj/bZIi4wmYzbHjP+JdCLRFIINoGbqdQRJydoECJOfspPdtP7mwsxSBAATSE2CI0ewcwGg2I9aAwBAEdlEn95UiEBhLoOICZGy8vNmPAJdQ+/FibQjEInC9DH9SikwncKY+Nis1CAQgkJgA5xCJE5Bz9xQgOWcnvW+PSe8CHhRJAKdDEzhBBm+VItMJmJFZTV+LTyEAgSEIMAxrCMqF9kEBUmjiBnB7T/XhS6hqEAhAIDEBhhZ1T0DzrLqjYk0IRCWwq6z/khSBwFYEKEC2QsIbIwJcOh2BoIFAYgI3qv9TpUg3AmZlZt3WZi0IQCAmgdZGUsRkWZVtCpCq0hk0GC6dBsWJMQjMTeAUbXmTFOlGwKzMrNvarAUBCMQkwI+ZMekWbJsCpODkRXTdl0zvNbd9NoQABEISYEhRf5ow68+MLSAQg8BeMsrdNAUB2ZIABciWPHi1TICrH8sc+B8CqQn41/yP9HGCdTcTMDOz2/yC/yAAgaQEfjNp73SeJQEKkCzTktwpLpkmTwEOQGAzgdP1P/MZBKGnmJnZ9dyM1SGwEAE2Hk+Ac4rxXJp+lwKk6fSPDd6XSu839hPehAAEhibAUKL5icNufnZsCYGQBB4oYztJEQjcRiB8AXKbaRYKJfC4Qv3GbQjURsDPtDixtqAGjMfszHDALukKAhAYQ2CD3uNuWIKArBKgAFllwdIyAS6VLnMo8n+crorA2YrmWikyHwGzO2u+TdkKAhAITIBzi8BASzdHAVJ6BsP670uk+4c1iTUIQGBOAgwhmhPcms2GZLimWxYhAIF1BB6s1ztIEQhsJkABshkD/40I+O5XvlQ6ekkDAQgkJHBcwr5r6fp4BbJJikAAAmkJbKPuHymNJJgtjQAFSGkZi+uvC5C4PWAdAhDoQuBzWukqKbIYATM0y8WssDUEIBCCAMOwQlCsxAYFSCWJdBgLqi+N+hLpgmbYHAIQCECAoUMBII5MwHIEggYCiQkcrP63lyIQWKIAYSdYIeBLo75EuvKaFgIQ6E4g9JofCm2wYXvHNhw7oUMgJwIuPg7JySF8SUeAAiQd+9x65tJobhnBn1YJXKbAr5QiYQiY5aVhTGElTwJ4VRABzjUKSlZMVylAYtItx7Z/lfCl0XI8xlMI1EuAIUPhc+vJ6OGtYhECEOhL4DBtwGgLQahG5gyEAmROcJVt5kuiLkIqC4twIFAkAQqQ8GmDaXimWITAPAQ83/Qh82zINnURoACpK5/zRsMl0XnJLW/H/xAIRcDDhTaGMoad2wh8UUtmqwaBAAQSE+CcI3ECcuieAiSHLKT1wZdCfUk0rRf0DgEImMAx/g/tQ6Dzuh/ovCYrQgACMQn4lv88cywm4QJsU4AUkKTILvpSqC+JRu4G8xCAQAcCDBXqAGnOVWA7Jzg2g8BEAvN9sJM221+KNEyAAqTh5I9C9y8Ro0UaCEAgIQE/NO/8hP3X3vWFCtCM1SAQgEBiAgzDSpyA1N1TgCyegZIt+BIoB4GSM4jvNRHgeRXxs8kQt/iM6QECXQg8rstKrFMvAQqQenPbJbIDtJIvhapBIFAigap8ZohQ/HTCOD5jeoBAFwI7a6X7SZFGCVCANJr4Udhc/RiBoIFAYgLXqv+zpEhcAufIvFmrQRYmgAEILEaAIeCL8St6awqQotO3sPNHLGwBAxCAQAgCJ8jIJikSl4AZHxe3C6xDAAIdCTy+43qsNoZA6W9RgJSewfn931ub+hKoGgQCEEhMgKFBwyUA1sOxpicITCOwiz7cTYo0SIACpMGkj0KuYPjVKBIaCJRN4Hq5f4YUGYaAWZv5ML3RCwQgMI0A5yLT6FT8GQVIxcmdERqXPmcA4mMIDETgFPVzk7QsKdfbW+X6R6QIBCCQngAFSPocJPGAAiQJ9uSd3lse+NKnGgQCEEhM4PjE/bfYPcOwWsx6RTFXFMqeioXzEUFoTShAWsv4crz84rDMgf8hkJqAr3x8LLUTDfb/UcV8oxSBAATSE3hMehfwYGgCBRcgQ6Oqqj8KkKrSSTAFE3DxwYnw8Amk8BueOT1CYBIBzkkmkan4fQqQipM7ITRf6txjwme8DYFuBFgrFAGGAoUi2d8O7PszYwsIxCCwn4xyV05BaEkoQFrK9nKsj11u+B8CEEhMwJOhT0zsQ8vdn6zgfSVETVmCtxCojMAGxfNoKdIQAQqQhpI9CpVLnSMQNBBITOBM9c/tYAUhkZi9b8mbqHu6hQAE1hAo5dxkjcssLkKAAmQReuVt60uc+5bnNh5DoEoCDAFKn1ZykD4HeAABE3iQ/ttBijRCgAKkkUSPwvQvDL7UOXo5Z8NmEIDAogQ2ycCxUiQtgRPUvXOhBoEABBIS2EZ9+xxFDdICAQqQFrK8GiNf7lUWLEEgJYFz1fm10t7CBkEJOAdnBbWIMQhAYF4CnKPMS67A7ShACkzanC7vpO0OlCIQgEB6Ajx8MH0OVjwgFyskaGcR4PO4BA6W+e2lSAMEKBRpaCQAABAASURBVEAaSPIoxEeq9SVONQgEIJCYwAcT90/3qwSOW11kCQIQSEhgW/X9CCnSAIH+BUgDUCoNkUublSaWsIojcJE8vkqK5EHAuTg/D1fwAgLNE+BcpZFdgAKkjUT7kuZD2wi17iiJrgoC3HkpvzSSk/xygkdtEvBoDV8JaTP6hqKmAGkj2YcpTL7QgoBAIAMCDPnJIAnrXDhm3etxL3kPAhCIT8A/mD4kfjf0kJoABUjqDAzTP5c0h+FMLxCYReAKrfBlKZIXgSvlzmVSBAIQSE9gzDlLeqfwICwBCpCwPHO05isfh+boGD5BoEECDPXJN+nkJt/c4FlbBB6lcLlpjiDULBQgBWV3Tlcfpu18SVMNAgEIJCbASW7iBEzpntxMgcNHEBiQgB8bcMCA/dFVAgIUIAmgD9zl4QP3R3cQqJFAiJg8zOcLIQxhIwqBjbLqHKlBIACBxAQYhpU4AbG7pwCJTTitfV/C5EucNgf0DoEVAjzwboVEvi3PZ8kyNzjVIIHHNBhzUyFTgNSd7gcpvB2kCAQgkJ4AQ3zS52CWB+RoFiE+h8AwBHZWN/tKkdQEIvVPARIJbCZmufqRSSJwo3kC14rAeVIkbwIXyD0/mFANAgEIJCbAOUziBMTsngIkJt20tjeo+0dLkcUJYAECixL4kAxskiL5Ezg2fxfxEAJNEDiiiSgbDZICpN7E76fQfAlTDQIBCCQmwNCeuRMw+IbkanDkdAiBsQR20bv3kSIVEqAAqTCpo5C4dDkCQQOBxASuV/+flCJlEDhLbnrInBoEAo0TSB8+5zLpcxDFAwqQKFizMModJLJIA05AYOkEMbhVipRBwEPluApSRq7wsn4CFCCV5pgCZHZiS1xjTzntS5dqEAhAIDEBTmYTJ2CO7snZHNDYBAIRCOwum5zPCEJtQgFSW0aX4+Hhg8sc+L94AsUHcKMiOFWKlEXgTLnroXNqEAhAIDGBxyXun+4jEKAAiQA1A5NcsswgCbgAARE4RXqTFCmLgHN2UlkuR/AWkxDIgwDnNHnkIagXFCBBcWZh7Jfkxb2kCAQgkJ4AQ3nS52BeD8jdvOTYDgJhCdxf5pq7q6dirlooQOpLL8Ov6sspEZVJwL+if6RM1/FaBDx0zkPotIhAAAKJCXBjncQJCN09BUhoountVXSpMj1MPIDAAgRO17acwApCoeLcnVao77gNgdoIcG5TWUYpQOpKqC9R3q+ukIgGAsUSKHsIT7HYgzpODoPixBgE5iZwgLbcSYpUQoACpJJEjsLgThEjEDQQSEzAz/04MbEPdL84AQ+hcy4Xt4QFCPQgwKpbEdhG7zxKilRCgAKkkkSOwuAS5QgEDQQSEzhb/V8rRcom4Fvxeihd2VHgPQTqIMA5Th153BxFxgXIZv/4rzsBX5rcv/vqrAkBCEQkcHxE25gelgDDsIblTW8QmETgIfpgeylSAQEKkAqSOArBd4jYMFqmgcBiBNh6UQIUIIsSzGd753JTPu7gCQSaJbCtIn+kFKmAAAVIBUkchcClyREIGggkJvA59X+VFKmDgIfSeUjdYNHQEQQgMJEA5zoT0ZT1AQVIWfma5O0O+uDBUgQCEEhPgCE76XMQ2gNyGpoo9iAwH4FHaDNfCVETRTA6EAEKkIFAR+7GlyR9h4jI3WAeAhDoQOBDHdZhlbIIkNOy8oW39RLwHJCD6w2vncgoQOrIddhLknUwIQoIpCBwmTq9UorURcBD6i6sKySigUCxBDjnKTZ1q45TgKyyKHWJXwNKzRx+10hg4aE6NUKpJCZPRq8kFMKAQNEEXIAw6qPoFC4tUYAUnkC5f4jURYgaBAIQSEyAAiRxAiJ2/8GItjGdBwG8KIOA573+Whmu4uUkAhQgk8iU875/CSjHWzyFQL0EPPRqY73hNR+Z83t58xQAAIE8CHDuk0ce5vZi6wJkblNsmICA7wRxWIJ+6RICENiaAL+Qb82ktne4wlVbRomnVAJHyPENUqRQAhQghSZu5PZBan0pUg1SAwFiKJoAJ6dFp6+T8+S4EyZWgkB0AjuphwdIkUIJUIAUmriR21yCHIGggUBiAr5L0gWJfaD7xQh02fpSreShWGoQCEAgMQHOgRInYJHuKUAWoZd2W1965MuXNgf0DoEVAseuLNBWT4BnglSfYgIcnsBcPR4+11ZslAUBCpAs0jCXEwdoK1+CVINAAAKJCTA0J3ECBuyeXA8Im64gMIXALvrsvlKkQAIUIBklracrXP3oCYzVIRCJwLWye5YUaYPA5xSmh9ypQSAAgcQEOBdKnIB5u6cAmZdc+u18B4j0XuABBOogsEgUJ2jjTVKkHQLHtRMqkUIgawIUIFmnZ7JzFCCT2eT8yd5ybmcpAgEIpCfAkJz0ORjaA3IelDjGIDA3gXtpy1+SIoURoAApLGEjd5l4NQJBA4HEBK5X/2dIkbYInK1wPfRODQIBCCQmwDnRIglItC0FSCLwC3b7mwtuz+YQgEAYAifLzE1SpC0CtyrcE6UIBCCQngDDsNLnoLcHFCC9kSXf4N7ywHd+UIMEIoAZCMxLgKE485IrfztyX34OiaAOAvdTGAxLF4SShAKkpGwt+0qlv8yB/yGQmoCvfHwstRPl919sBKfLcw/BU4NAAAKJCTwucf9035MABUhPYBmsTgGSQRJwAQIi4OLjRrVImwRcgJ7SZuhEXQ2BegLh3KiwXFKAlJUwD73aoyyX8RYC1RJgCE61qe0cGPtAZ1SsCIGoBPaXdR7OLAilCAXI0lIpubKfj/V/KAQgkJwAk5CTpyALBz4qL3wlRA0CAQgkJLBBfXM3LEEoRShASsnUsp9cYlzmwP/VECg2kDPlOeP/BaFx8RA8D8VrHAPhQyALApwjZZGGbk5QgHTjlMNavsPDvjk4gg8QgMASQ2/YCVYIlLsvrERAC4E6CDxEYewgRQogQAFSQJJGLvrSoi8xjl7SQAACiQhsUr/HShEImICfB+IheV5GIQCBdAS2UdeHSYuQ1p2kAClnD+DSYjm5wtO6CXxG4V0rRSBgAh6K5yF5XkYhAIG0BDhXSsu/c+8UIJ1RJV3Rd3b41aQeROkcoxAokgBDbopMW1Snj49qHeMQgEBXAodoxe2lSOYEKEAyT9DIvUeq9aVFNQgEIJCYwAcT9x+me6yEJHCcjHlonhoEAhBISMDFx8EJ+6frjgQoQDqCSrwalxQTJ4DuITAicJHaq6QIBNYS8JA8D81b+x7LEJhIgA+iEvCc2agdYHxxAhQgizOMbcHV/ENjd4J9CECgEwGGX3XC1ORK7BtNpp2gMyTgieiMGskwMWtdSliArHWD5SkE/EXadsrnfAQBCAxHwENthuuNnkoiwNC8krKFrzUT8K14fUvemmMsPjYKkPxTyPCr/HNUnod4PA+BK7TRl6UIBMYR8NC8z4/7gPcgAIHBCXDuNDjyfh1SgPTjNfTavvJx6NCd0h8EIDCWAHc6GouFN9cQ6DQMa836LEIAAnEIeB4Iz06LwzaIVQqQIBijGfGdHDwHJFoHGIYABDoT4OSyM6pmV6RIbTb1BJ4ZAT++YP8xPvFWJgQoQDJJxAQ3uIQ4AQxvQ2BgAleqv4ulCASmEfAQvS9NW4HPIACBwQhwDjUY6v4dUYD0ZzbUFr6DQ5wvz1AR0A8E6iHAL9v15DJ2JOwrsQljHwLdCDyu22qslYIABUgK6t36fJBW850c1CAQgEBiAsGGXyWOg+7jE2Bfic+YHiDQhcDOWul+UiRDAhQgGSZl5BJXP0YgaCCQmIAfMndeYh/ovhwCl8hVD9lTg2RGAHfaI8C5VKY5pwDJNDFya0fpL0h9Fwd0aQkGMEi1D/zU0tLSJikCga4Efk4rptpf6XeJvxdLSzBYWlq6j/TeUiQLAls6QQGyJY9cXu0jR35LulH6B1IEAhCAAAQgAAEIQKAbgT/VahdK/SiD/6MWyYwABUhmCRm546efe/GO+u8fpadK/SusGqRkAvgOAQhAAAIQgEA0Aj8ty2dIXy/dTmpZOafyMpoJAQqQTBKxzo1Hrnvt54H41o4HrXuflxCAAAQg0I0Aa0EAAnUT8NWOcedK68+p6qZQSHQUIPklymOHx41ZdFV/utx9g3RbKQIBCEAAAhCAAAQKIBDVRY8WeZt6OEk6brTIfnr/rlIkIwIUIBklY+TKo0btuMaTC/9EH/guK7uqRSAAAQhAAAIQgECrBO6rwD1f9vfVThKfOzEMaxKdRO9TgAwIvmNXXS4Vuvi4WPZcjKhBIAABCEAAAhCAQDMEfP76F4r2fOnPS2cJBcgsQgN/7gQO3CXdTSHwE/psf2kX8eQqD8fyZCsPz+qyDetAoFUCxA0BCEAAAnUQ+BmFcY705dLbS7vIQ7QSw9cFIRehAMklE8t++OrHNsuLnf/3xHRPuvJE9c4bsSIEIAABCEBgGAL0AoFgBPxgQZ/zPKCnRc8TeVjPbVg9IgEKkIhw5zA97yVCT7ryrXp9y15/yebomk0gAAEIQAACEIBAlgTuLK/eJz1e6tEianrLvOdYvTvKaoNMnaEAyScxvjT48AXd8UMLPRnLk7IWNMXmEIAABCAAAQhAIDmBveXB5dInSBcR3+THE9IXscG2gQhQgAQCGcCMh1JtH8COJ2N5UtYLZIv8CsLS0hL/QwACEIAABCBQFoHbyd2/ln5Wuot0UfGteO+/qBG2D0OAE9QwHENY8QN0QtixDU/KeoUWPiX1ZC01CAQgAIEUBOgTAhCAQG8C/jH1XG31ImnfubHaZKKEPNea2AkfzCZAATKb0VBrPDRCRwfIpidredKWFhEIQAACEIAABJohUGagT5Hbl0r3kYaWGOdaoX1swh4FSB5p/lm58QvSGOLJWp609V4Z9yQuNQgEIAABCEAAAhDIisBPyhs/zfxotbHOV/aSbfejBklJoIUCJCXfrn3/etcVF1jvd7StJ3F5MpcWEQhAAAIQgAAEIJAFAY/YuEKexB4i5UnoD1Y/SGICFCCJEzDq3g/IGS1GbTyJy5O5XqpeQo6plDkEAuMI8B4EIAABCEBgIgHPWX2NPv20dGfpEEIBMgTlGX1QgMwANMDHrsaHKkAcjguPI7XgQsSTvLSIQAACEIBAdQQICAJ5E/hFuXeR9LlSnwupGUSGPOcaJKASO6EASZ81j0fcMYEbHorlSV5PTtA3XUIAAhCAAAQg0C6BZyh0n4PsrnZo8Y+v/yt2p9ifToACZDqfIT5NWYl7ktc7FaQnfTEpSyAQCEAAAhCAAASiEfgpWT5V+mZpiGefycxccvBcW7FRMAIUIMFQzm0oZQGy4rQnfXnylyeBrbwXoMUEBCAAAQhAAAIQ2EzAJ/1+NIDbzW8k/I95IAnhu2sKEFNIp9up61xO+j35y5PAXi2fPClMDQIBCBRLAMchAAEI5EHgDnLDVzx85eOntZyD+MffIeed5BBzVj5QgKRNx4Hq3pPC1WQh/jI+T554UpjDgt6lAAAQAElEQVQnh2kRgQAEIAABCECgDwHWvY2A53hcplee86EmG/Gw81/OxpsGHaEASZt0V+BpPRjfuw8Ynhz29PEf8y4EIAABCEAAAhCYSMA/aPruVp/XGrn+oJnrOZiQ1S8RC5D64QWIMOed35PDjlKMvmTqSWNaRCAAAQhAAAIQgMBUAitDuv18j22nrpn2Q+aBJORPAZIO/g7q+j7S3MWTxTxp7KDcHcW/NQRYhAAEIAABCAxPoKSb2jxAeJjzKggphAIkBfXlPn91uSnif08aO0OevknqyWRqEAhAAAIQGEeA9yDQIIE7KuajpSXd1t8jPe4rn5EEBChAEkAfdfkro7ak5ply1pPJPEdEiwgEIAABCEAAAo0T8En8RjF4ijS19O2/xHOxvjFmuT4FSLq0lLrTezKZJ5U9R+g8yUwNAgEIQAACEIBAYwR8F88XKeYLpD8vLVE8DKtEv4v3mQIkTQpvp273lsaR+FY9qey16sbPDfFkMy0iEIAABCAAAQg0QmAXxflZ6V9LfU6jpkjx4xCKdLx0pylA0mRwL3Vbw1wKP0TxCsXiSWdqEAhAAAIQgAAEKifwBMXn4dgl/5CqEDbLXfX//y9FBiZAATIw8FF3pQ6/Grm/ReOH+XjSmSefeRLaFh/yAgIQgAAEIDAQAbqJS+AnZP546fukXlZThTAMK0EaKUASQFeXNRUgCmezePKZJ6F5MtrmN/gPAhCAAAQgAIEqCPgk3bfk/40qotkyiBrPybaMcJBX/TqhAOnHK9TaJd2Ct0/MnoTmyWh/pY3YtwQBgQAEIAABCBRMwPM7Xi7/z5H+jLRGcXFVY1xZx8RJ4vDp+QV1WfOTxX2wepli9MHKk9S02I4QKQQgAAEIQKASAis/Kv6F4qn5fNGPFqhpSJnSlb/UvEPlSr+VS33+RcGT1H4710TgFwQgUBUBgoEABMIR+H2Z8t/wFoZV+1z4/ooXGZCAoQ/YHV2JQCsFiEJd8i8K79eCJ615WYsIBCAAAQhAAAKZEvAIDd9Y5m3y707SjlL8ai2dm2WRLAqQ4dOw3/BdJu/Rk9Z8u94HJvcEByAAAQhAAAIQGEfgIXrTf6tbvLV+i+dmSnc6oQAJyL6Dqdtrnd2kLcr/p6DPkv6t1PNE1CAQgAAEIAABCCQm4IcLv14+fFz6/0pblH1aDDplzBQgw9LfU921zNyx/6UY+E5ZntymRQQCQQhgBAIQgAAE+hPYVZtcIv1T6QZpq+Jnmv1sq8GniNsnhCn6bbXPFiZzdcmtOXhy21O7rMw6EIAABCCQMwF8K5TAH8vvL0hdhKhpXnxu0jyEoQBQgAxFerkfdu5lDv7fk9vergVPdvMvD1pEIAABCEAAAhCITOCnZf8M6d9L7yBFlgmUeY627Htx/1OADJsydu6teXuymye9HbD1R7wDAQhAAAIQgEBAAgfL1pekB0mRLQlwjrYlj6ivKECi4t3CuFn/8hbv8GKFwM5a+LT0dVJPhlPTS1gZAhCAAAQgAIHJBHyl4x/08alS32pXDbKOAAXIOiAxX/qkOKZ9bK8S+D9a9F2w1CBjCHjy25/pfU+GYzyqQCAQKIMAXkIAApkT2F3+ed7lH6pFJhPYRR8xJFwQhhAKkCEoL/dBZb3MYdb/Lj48Ke5Zs1bkcwhAAAIQgEDTBKYH73O852uVi6S/KEVmE2CkymxGQdbwzhnEEEZmEqAAmYnothV8qfiNeuVJcp4sp0UEAhCAAAQgAIGOBH5G650jfaWU0ReC0FE4V+sIatHVaihAFmUw1Pbs1P1Je5KcJ8t50lz/rdkCAhCAAAQg0B6B31DI/tv5ALVIPwKcq/XjNffaFCBzo+u94V69t2ADE/BkOU+ae6te+MqIGiQfAngCAQhAAAKZELiz/HiP9HjpT0iR/gQoQPozm2sLCpC5sPXeyBObduy9FRusJfBHeuFJdJ5Mp0UEAhCAQOMECB8CqwT21uLl0idKkfkJcMOg+dn12pICpBeuuVe+99xbsuFaAp5E58l0f643fdcsNQgEIAABCECgWQLbKPKXSD8r9Y+dapAFCPi8uNMPnQv0waYiYNBqkMgE7hnZfkvmPZnuVQrYzw3xJDstIhCAAAQgAIHmCLjgcOHxYkXuQkQNEoAA52wBIM4yQQEyi1CYz31JL4ylrKwkdeYA9e5Jdp5sp0UEAhCAAAQg0AyB31WkG6UeeqUGCUiAAiQgzEmmKEAmkQn7PjtzWJ4r1jzJzpPt3q03PPlODQKBRggQJgQg0CIBPyhv5e/eDi0CGCBmztkGgEwBMgBkdcEVEEGIKP4lyJPv+CUoImRMQwACEIDAMoFE//vK/xXqmyv/ghBRKEAiwl0xTQGyQiJe61/meZhePL4rlhkLu0KCFgIQgAAEaiKwMvfxUwpqZykSl8C94prHugksUIB4c7QDgd06rMMqYQh4Eh53AwnDEisQgAAEIJCewNq7P3LONkw+tlM3PytFIhJgZ44Id2Sa4VcjEAM2HorlyXkemjVgtwN2RVcQgAAEIFA7gacpwEul3BZWEAYWhmFFBk4BEhmwzLMTC0IC8eQ8T073ZD1PVk/gAl1CAAI1EiAmCEQm8FOyf6r0LdLtpcjwBDh3i8ycAiQyYJlnJxaEhOLJer5d7wMS+kDXEIAABCAAgS4EDtJK/pt1sFpkawJDvcO5W2TSFCCRAcs8Q7AEIbH4gYXnyIdXSj2ZTw0CAQhAAAIQyIbAtvLkjdIzpNy4RhASCwVI5ARQgMQF7EnR4XfiuD7Xat37+vMV3EVST+pTg0AAAhCAAASSE9hVHlwifZYUyYMA526R8+CTsshdNG3et4Z1EdI0hMyC92S+L8unP5IiEOhNgA0gAAEIBCTwHNnykCsXIVpEMiHwc5n4Ua0bFCBxU+sCJG4PWJ+XwFu1oSf5ebKfFhEIQAACEMicQE3u+XkeZymg10qRPAn87zzdqsMrCpC4efxfcc1jfUECnuTnX5486W9BU2wOAQhAAAIQ6ETgUK3lJ5r7yeZaRDIlwDncFokJ+4ICJCzP9da4ArKeSH6vPdnvdLn191JPAlSDQAACEIAABIITuKMsvl16kvQnpUjeBO6Rt3tle0cBEjd/VM9x+YayvkGG/ljqSYBTx+FqHQQCEIAABCDQl8B9tcFG6VOlSBkEOIeLmCcKkIhwZZqdVxAKEhcfF8vfP5MiEIBAXgTwBgIlEvB51gvl+AXSn5ci5RDgHC5irvzFiGi+edPsvOXtAtvJ5ddJfS92TxLUIgIBCEAAAhDoTWDlGVR/oy1vJy1YmnSdc7iIaacAiQhXptl5BaFQ8cR0TxL0ZMFCQ8BtCEAAAhBIROA31K9vcvIAtUiZBJgDEjFvFCA94PZc9a5af3spUi4BTxL0ZMG3KQRPHlSDQAACEIAABCYS+Al98n7p8VIvq0EKJcCNhCImjgIkHlyufsRjO7Tl31eHnjzoSYRaRBIQoEsIQAACuRPw1Q5f9fjt3B3Fv04E/MPjTp3WZKXeBChAeiPrvAEFSGdURazoyYPny9O/lPK9EQQEAhBohQBxziDg+R2e53G21vO8DzVIJQQYhhUpkZxIRQIrsxQgglCZ3F7x/K30HCl/ZAQBgQAEINA4Af845Ttc+U5X2zTOosbw05/L1UhVMVGACEIkoWqOBDYDs77M/kX5cYQUgQAEIACBNgn8nsK+TMrwXEGoVDiXi5RYCpBIYGX2blIkDIEcrewop46Rvk96ZykCAQhAAAJtEFi5Qck7FO6dpEi9BDiXi5RbCpBIYGXWd8FSg1RO4AmK73Kpr4qoQSBQGwHigQAE1hA4QMvcol0QGhHO5SIlmgIkEliZZacVhEbEt+rz5MOXKV5PRlSDQAACEIBARQQ8B/DvFM+npcM9pFadIUkJcC4XCT8FSCSwMstOKwgNiScf/pXi9WRET0rUIgIBCEAAAhUQ2FUxXCR9tnSDFGmHAOdykXJdQgESKfToZtlpoyPOsgNPRrxUnj1FikAAAhCAQNkEnin3vyDdXYq0R4BzuUg5pwCJA3Zbmd1BirRJwJPSj1bofoq6JytqsVTBbwhAAAJNEvhpRX2G9E3SO0iRNglQgETKOwVIHLDssHG4lmb1UDnsyYqetKhFBAIQgEAPAqyaisDB6vhL0oOkSNsEdmo7/HjRU4DEYUsBEodriVY9WdGTFl8r5z2JUQ0CAQhAAAIZEvCVjrfIr1OlPyVFGiYwCt37BCNaRjBCNhQgIWmu2qIAWWXB0tKSJy0+Z2lpyZMYf1EtAgEIQAACeRHwHA8/VPBpebmFNxkQ4JwuQhIoQCJAlclKdlZFgoQk4D9wnqD+jJBGsQUBCEAAAnMT8A9Ez9PWn5fyA5EgIFsR4JxuKySLv0EBsjjDcRa4dDuOCu+ZwPb6781SX+L3JEctIhAYQ4C3IACB2ARWhsi+Wh355jFqEAhsRYBzuq2QLP4GBcjiDMdZoFoeR4X31hJYmeTodu37LEMAAhCAQHwCU28SEr97eiiIAOd0EZJFARIBqkzuKEUgMIuAf1XxlZCjtKInuqlBIAABCEAgIgHfJv1dss9t0gUB6USAc7pOmPqtNKUA6WeItbcgcKctXvECAtMJPF0fe/Kj54hoEYEABCAAgQgE9pbNy6VPkiIQ6Ergjl1XZL3uBChAurPqsyY7ax9arGsCnvzoSZDP1YsNS/oPgQAEIACBIAS2kZUjpedJd5EiEOhDgHO6PrQ6rksB0hFUz9XYWXsCY/XNBDwJ8jVa8nNDPDlSiwgEIDA0AfqrioALjs8qopdKbydFINCXAOd0fYl1WJ8CpAOkOVZhZ50DGpvcRuAALV0h9SRJNQgEIAABCMxB4He0jYe3euiVFpECCOToou9emaNfRftEARInfRQgcbi2ZPUnFawnSb5TLfuTICAQgAAEOhL4Ca13vPS9Ui+rQSAwNwH+Bs+NbvKGFCCT2SzyyWI76yI9s21tBJ6sgDZK+QVPEBAIQAACMwg8QJ9/SfobUgQCIQhwTheC4jobFCDrgAR6yc4aCCRmNhP4ef3vyZMvUuvJlGqQWASwCwEIFEnA8zteIc/Pkf6MFIFAKAKc04UiucYOBcgaGAEX2VkDwsTUZgL+4/rXWvJkSk+q1CICAQhAoCoC8wbjuwheoI1fIOW8RhCQoAQ4pwuKc9kYX9RlDqH/5zkgoYlib4WAh2J5UuUTVt6ghQAEINAwgT9Q7JdI7ytFIBCDQCOT0GOgm2yTAmQym0U+oVpehB7bziLgSZXv00qeZOllLSIQgAAEmiLwU4r2VOk/SvmbKwhINALsXxHQUoBEgCqTXAERhBKlMJ89ydKTLT3psjDXcRcCEIDA3AQO0pY+9h2sFoFAbAIUIBEIU4BEgCqTcBUEZBACnmx5rnp6lRSBQMkE8B0CXQi8QSudIf1pKQKBIQhsO0QnrfXBiXL4jHOXovBMsTibwJ9rlS9IfccsNQgEIACBqgjsqmh81eNPpfpDNwAAEABJREFU1CLBCWBwCoENUz7jozkJUIDMCY7NIJAhAU/C9AT138/QN1yCAAQgMC8BFx0Xa2MXIWoQCECgdAIUIGsyyCIEKiDg+UdvUxwnST1JUw0CAQhAoEgCHmbl4VYedrVdkRHgdA0ENtUQRG4xUIDklhH8gUAYAofKjIcreLKmFrMXHIQABCCwloAnmHMMW0uEZQhURIACpKJkEgoE1hHwr4en673XS5lEJwgIBCAwjkBW7/mOQ761rm+xy1XcrFKDMxAIR4ACJBxLLEEgRwKePPencswP6mL8tEAgEIBAtgQ8j22jvPPDBdUgEMiCQNwhWFmEOLwTFCDDM6dHCKQg4OLDd8nyZM4U/dMnBCAAgUkEfC7yAn14vpQ7+QkCAoHaCfhLX3uMxJc/ATwchsAd1I0nc3pSp4dn6SUCAQhAICkBP8voHHnwCuntpQgEINAAAQqQBpJMiBBYR8AT0z2505M8133Ey/YIEDEEkhH4DfXsY9ED1CIQyJUAQ7AiZIYCJAJUTEKgAAKe3OlJnv8gX31lRA0CAQhAYBACd1Yv75UeL/0JabtC5BBolAAFSKOJJ2wIjAj8oVo/vNCTP7WIQAACEIhKYG9Zv1z6O1IEAhBolEAOBUht6G+tLSDiqZ7ALypCT1D/C7UIBCAAgVgE/kaGL5DuIkUgUAqBm0txtCQ/KUDiZOuHccxiFQKhCWxh7+V6da7Uk0LVIBCAAASCEPCdrVx4vDCINYxAYFgCNw7bXRu9UYDEyfMNccxiFQLRCXgyqCeFenJo9M7oAAJNE2gj+CcrzEulHnqlBoFAcQQ4p4uQMgqQCFBlkp1VEJBiCXhSqCeHvkcReLKoGgQCEIBALwI/qbVPkr5TynFEEJC8CPTwhnO6HrC6rkoB0pVUv/XYWfvxYu08CTxRbnmyKL9cCgQCAQh0JnCA1rxCeqgUgUDpBH5QegA5+k8BEicrhRQgcYLHalUEPFn0s4ropdJtpAgEIACBSQT8IMHX6MNPS3eWIhCogQDndBGySAESAapMsrMKAlINARceRyoaFyIuSLSILEwAAxCoi4DvpneRQnqudIMUgUAtBDini5BJCpAIUGWSnVUQkOoIeCjWRkX1JCkCAQhAYIXA07Xgiea7qy1CcBICPQgwBKsHrK6rUoB0JdVvPQqQfrxYuxwCO8jVd0k9Sd2TTLWIQAACjRL4KcV9qvQo6fZSBAI1EuCcLmxWN1ujANmMIfh/7KzBkWIwMwK+Ta8nmXqyaWau4Q4EIDAAgYPUh2/ZfbBaBAI1E+CcLkJ2KUAiQJVJdlZBQKYQqOMjTzL9lEJ5tdSTT9UgEIBA5QTuoPjeLD1D+tNSBAK1E2AIVoQMU4BEgCqTFCCCgDRBwMeQ5ylSTz71JFQtIhDImwDezU3Aczwu09bPkCIQaIUA53QRMu2Thwhmmzd5XfMEANAaAZ+YfFlBP0uKQAAC9RHwDw0uPvihob7cDhlRiX1dX6LTuftMARInQ9fEMYtVCGRP4I3y0JNSPTlViwgEIFA4AQ+1PEsxeKilGgQCzRH47+YiHiBgCpA4kL8z1SwfQqBuAp6U6smpnqRad6REB4G6CRyq8LjZhCAgTRPgnC5C+ilAIkCVSaplQUCaJuDJqZ6k+iZR2FaajeAIBCAwk8AdtcbR0pOk3G5bEJCmCXBOFyH9FCARoMok1bIgIBAQgWdKL5F6jogaBAIQyJzAfeWfHzj6FLWhBXsQKJHA1SU6nbvPFCBxMkQBEocrVssksKvcvlD6bOkGKQIBCORHwOcDfyW3LpD+vBSBAASWljwB/eY6QOQVhQ84eXlUhzdcrqsjj0QRjsB2MvV30k9LPalVDQIBCGRCYBf5cY70ZdLbSREIQGCZAOdzyxyC/08BEhzpZoPf3/w//2VHAIeSEzhAHvyL9O5SBAIQSE/AVzu+KDceIEUgAIEtCVCAbMkj2CsKkGAotzL0ra3e4Q0IQMAEbtF/V0mRtggQbZ4Evim3OBcQBAQCYwgwpH4MlBBvcdAJQXG8Darm8Vx4FwInCsEmKQIBCKQncJNcOFmKVE2A4OYkwLncnOBmbUYBMovQ/J9TNc/Pji3rJnBC3eERHQSKI/Dh4jzGYQgMQ4ACJBLnpgqQSAwnmaUAmUSG91smcKOCP12KQAAC+RDw8z58JSQfj/AEAnkQ4FwuUh4oQCKBlVnGuAsCAoERgZXGw6840VmhQQuBPAj4h4FP5OEKXkAgKwLfzsqbipyhAImXzP+IZxrLECiWgAuQYp3HcQiUSaCT1wyN7ISJlRoj8I3G4h0sXAqQeKivjGcayxAokoCvfDDZtcjU4XQDBD6iGLk5hCAgEFhDYPFzuTXGWFwlQAGyyiL0EjttaKLYK53AxxWAh3qoQSAAgcwIXCN/zpIiEIDAMgEX5FwBWWYR/H8KkOBIbzNIAXIbiiWWIGACDPEwBRQC+RLgblj55gbPhifwn+rSz61Sg4QmQAESmuiqPd854YbVlyxBoGkCtyp632lHDTIsAXqDQGcCx3VekxUhUD8BfkiOmGMKkIhwZZqdVxAQCIiAh3Z4iIcWEQhAIFMCvuPPhZn6VqZbeF0yAW4mFDF7FCAR4co0BYggIBAQAYZfCQICgQIIMAyrgCTh4iAEOIeLiHmIAiSi+9mbZufNPkU4OBCB4wfqh24gAIHFCHxgsc3ZGgLVEOAcLmIqKUAiwpVpdl5BQFISyKLv8+WFh3aoQSAAgcwJ+O/WlzL3EfcgMAQBhmBFpEwBEhGuTPtArgaBQNMEGH7VdPobDr7c0BmGVW7u8DwcAc7hwrHcyhIFyFZIgr7BzhsUJ8YKJfDBQv3GbQi0SoACpNXMVxR3gFC+GsAGJiYQoACZACbQ218JZAczECiVwEY5TiEuCAgECiJwsXz9uhSBQKsE/luB8+BcQYglFCCxyC7bvVrN96WJhG4hkJzAick9wAEIQGAeAgydnIca29RC4IpaAsk1DgqQ+Jm5NH4X9ACBbAm0O5Qj25TgGAQ6EeC72wkTK1VK4IuVxpVNWBQg8VPB3UTiM6aHPAl46NUlebqGVxCAwAwC5+rzYh8eKt8RCCxCgAJkEXodtqUA6QBpwVW4jLcgQDYvlgDP/ig2dTgOgaVNYsB3WBCQJgnw4/H8ae+0JQVIJ0wLrcROvBA+Ni6YAEM4Ck4erkNABPgOCwLSJAGugEROOwVIZMAyTwEiCM0JAXvoxnlggAAEiiZwhry/TopAoCUC1ypY30RIDRKLAAVILLKrdr+hRe6EJQhIUwSOU7QewqEGgcCwBOgtGIFbZelkKQKBlgj49vEtxZskVgqQYbAzD2QYzvSSDwGGbuSTCzyBwCIE+C4vQq+9bWuImOFXA2SRAmQAyOqCAkQQkGYIeMjGmc1ES6AQqJvAqQqPB7IJAtIMAYbOD5BqCpAYkLe2yc68NRPeqZfASQrNQzfUIBCAQOEEXHycVngMuA+BPgS4AtKH1pzrUoDMCa7nZhQgPYGxetEEkt66s2hyOA+BPAnwnc4zL3gVhwBzQOJw3cIqBcgWOKK94GFs0dBiODMC/rX045n5hDsQgMBiBDwRvctVzcV6YWsIpCfwTbnguziqQWISoACJSXfVtu+E9V+rL1mCQLUEPFTDRUi1ARIYBBokwLyuBpPeaMifLzfusjynABkuXxcN1xU9QSAZAe6Ykww9HUMgKoETolrHOATyIEABMlAeKEAGAq1u2KkFIbZgPykBD9HwBPSkTtA5BCAQhcCxssqzfQQBqZoA52oDpZcCZCDQ6oYrIIKAVE3At971UI2qgyS4iQT4oG4CHhd/Xt0hEh0Elj4Lg2EIUIAMw9m9UFWbAlozAYZf1ZxdYoPA0hLf8Wz3AhwLQODrssGPaIIwhFCADEF5uY//VMNEdEFAqiTgoRnHVRkZQUEAAisEuB3vCgnaGgnwQ/GAWa2qABmQ27xdXTDvhmwHgcwJeGiGh2hk7ibuQQACCxC4UttyW3lBQKokQAEyYFopQAaEra6YByIISJUEGJpRZVoJCgJbEeC7vhUS3qiEAAXIgImkABkQtrpi5xYEpEoCDM2oMq0EVQaBQb3kdryD4qazAQlcOGBfzXdFATLsLkABMixvehuGgIdkeGjGML3RCwQgkJLA5eqc77sgIFUR+IqimW8CujZE+hOgAOnPbJEtPAn9G4sYYFsIZEiAIRkZJgWXIBCRwAcj2sY0BFIQYI7uwNQpQAYGru7OltYmxNM2AYZktJ1/om+PAN/59nJee8Tn1B5gbvFRgAyfkU8P3yU9QiAaAQ/F8JCMaB1geBYBPofA4ATOV4/fliIQqIUA52YDZ5ICZGDg6o6dXBCQaggwFKOaVBIIBHoR4MYTxoXWQOBaBfGvUmRAAhQgA8IedfVvav1QQjUIBIonwFCM4lNIABCYiwBzv+bCxkYZEjg9Q5+qdylEAVI9pAgBchUkAlRMDk7AQzA8FGPwjukQAhBITsDzGXn4aPI04EAAApyTBYDY1wQFSF9iYdY/K4wZrEAgKQGGYCTFT+cQSErgVvV+khSBQOkEOCdLkEEKkATQ1SXVtiAgxRNg+FXxKSSAhQiwMcOw2AdKJ+D5H1eUHkSJ/lOApMnal9Ut80AEASmWgIde8KtRsenDcQgEIfAJWblRikBgcAKBOjwjkB3M9CRAAdITWMDVPX42oDlMQWBQAierNw/BUINAAAKNErhJcftYoAaBQJEE+CEtUdooQBKBV7cBhmHJCgKBNAQYepGGO71CIDcCHAtyywj+9CHAuVgfWgHXpQAJCLOnKXb6nsBYPRsCHnLx8Wy8SeUI/UIAAibgiei+EuJlFAIlEfD8jy+V5HBNvlKApMumH3rzzXTd0zME5iZwirbkhEMQEAhAYMk/SAz+HAW4QyAAgVMD2MDEnAQoQOYEF2gzxs4GAomZQQkw5GJQ3HQGgewJcEzIPkU4OIaAf0wb8zZvzSAQ5GMKkCAY5zbCzj83OjZMRMBXPj6SqG+6hQAE8iTgYwI3pcgzN3g1noD314+N/4h3hyBAATIE5cl9nKmPfiRFSiPQrr++ZaGHXLRLgMghAIH1BHxb7nPWv8lrCGRM4DPy7TopkogABUgi8KNuXXwwdnYEg6YIAgy1KCJNdTtJdFkS4NiQZVpwagIBRqBMADPU2xQgQ5Ge3A9fgsls+CQvApvkzolSBAIQgMB6Asetf4PXVRKoJSjOvRJnkgIkcQLU/UelCARKIOCHZ3qoRQm+4iMEIDAsgW+ruwulCARyJ/B1OfgvUiQhAQqQeeCH3ca34r00rEmsQSAKAYZYRMGKUQhUQ4BjRDWprDoQ3zSh6gBLCI4CJI8scSkwjzzgxXQCx07/eJhP6QUCEMiWwAey9QzHILBKgHOuVRbJlihAkqHfomO+DFvg4EWGBD4vnzzEQg0CAQg0SmBW2FdqhS9KEQjkSsB3cfxUrs615BcFSB7ZPl9u/LcUgUCuBBhakWtm8Lt/QsEAABAASURBVAsCeRE4IS938AYCWxDwsz/8DJAt3izjRV1eUoDkkU/fXejkPFzBCwiMJfChse/yJgQgAIEtCRy/5UteQSArAtzJMZN0UIBkkgi5wfh6QZglfJ6EwBXq9atSBAIQgMAsApdoBQ/FUoNAICsCN8sbJqALQg5CAZJDFpZ98AMJr11e5H8IZEWA4VdZpSOZM3QMga4EOGZ0JcV6QxLwYw+uH7JD+ppMgAJkMpuhP/GYRA7aQ1Onvy4E2C+7UGIdCEBghQDHjBUSwVoMBSDAUOIAEEOZoAAJRTKMnWPCmMEKBIIR8J2vvhDMGoYgAIEWCJyrIHloqSAg2RDw3a+Y/5FNOpaWiipAMuIWyxXfGo5hWLHoYnceAhTF81BjGwi0TcA3VjmubQREnxkBD79yEZKZW+26QwGSV+49DIvJ6HnlpHVvVoZStM6B+CEAgX4EuB1vP16sHZcAP6bF5dvbOgVIb2TRN+BLEh0xHXQk4CEUn+m4LqtBAALRCBRp+Ax5fZ0UgUBqAr7y4Ssgqf2g/zUEKEDWwMhk8dPyg2FYgoAkJ+CrHx5KkdwRHIAABIoj4Cv6JxXnNQ7XSMC33nURMl9sbBWFAAVIFKwLGfUJ3wcWssDGEAhDgCEUYThiBQKtEuAY0mrm84qbkSV55WOzNxQgmzFk919ut4rLDhAORSfgoRNnRu+FDiAAgZoJnKrg+OVZEJBkBPzcD4ZfJcM/uWMKkMlsUn5ytjr37U/VIBBIQuAU9XqTFElOAAcgUCwBFx+nFes9jtdAwEOJb64hkNpioADJN6PvzNc1PGuAAEMnGkgyIUJgAAI+ARygm0hdYLZ0ApxLZZpBCpBMEyO3jpZ6PogaBAKDEvCVDy5ZD4qcziBQLQFPRPeE9GoDJLBsCVwpzzyiRA2SG4EuBUhuPrfiz78rUD+YUA0CgUEJMG57UNx0BoGqCTCfrOr0Zh3cW7L2rnHnKEDy3gHekbd7eBefQJIeGH6VBDudQqBaAgzDqja12Qb2Y3nG8CtByFUoQHLNzLJfx6n5rhSBwFAEPFSCAmQo2vSTNwG8C0XAf8sYUhyKJna6EPCzP77TZUXWSUOAAiQN9669+s4N7+u6MutBIAABD/vzkIkApjABAQhAYDOBa/T/eVIEAp0JLLgiI0gWBBh7cwqQ2IQXt+/J6ItbwQIEuhHg6kc3TqwFAQj0I8AwrH68WHt+An6MAbd/np/fIFtSgAyCed5ONm93qf6/UIpAIDYBD5GgAIlNGfsQaJPA8W2GTdQJCPjqh+eAJOiaLrsSoADpSirtelwFScu/ld4/p0D9y5EaZAkEEIBASAK+JeolIQ1iCwJjCPiHNM6ZxoDJ7S0KkNwyMt6f9+vtH0oRCMQkwNWPmHSxDQEIdB6GBSoIzEngDG3nYlcNkjMBCpCcs7Pq2w+0+AEpAoGYBHynmpj2sQ0BCLRNgAKk7fwPEf3bhuik8j4GCY8CZBDMQTp5UxArGIHAeAKX6W0//FINAgEIQCAKgS/KKr9OCwIShcB/ySpFriCUIBQgJWRp2ceL1ZwjRYYg0F4fDL9qL+dEDIEUBD6YolP6bILA3ytKJp8LQglCAVJCllZ99Jdr9RVLEAhHgF+NwrFsxdIfKVCrmrCCtaoJcKypOr1Jg/vHpL3TeS8CFCC9cCVf2b9SfyO5FzhQGwEPifAQrNriIp44BHaUWR+L3qrW6mW/p5cIBGYSuEBrcLc9QchUSnXLt969tlTnW/SbAqSsrPvS4lFluYy3BRA4tgAfcTEPAg+UGxulj5KuiJf9nj9beY8WAtMI8EyQaXT4bB4Cr5tnI7ZJR4ACZBz7vN97u9z7kRSBQCgCDIkIRbJeO9sotL+Wflp6D+l68Xv+zOt43fWf8xoCawlwzFlLg+VFCXxSBq6QIgURoAApKFkjV32J8b2jZRoILErAQyH8AMJF7QTbHkPZEfg5efQZ6Yuk04oLf+Z1vK630eoIBMYSOFvvXiNFIBCCAPNjQ1Ac2AYFyMDAA3X3hkB2MAOBE4XAT45Vg0BgKwJH6B0Pr9pXbVfxut7G23bdhvXyIDCUF7eqo5OkCAQWJfBNGThZihRGgAKksISN3P2SWl9yVINAYCECDIVYCF+1G99Rkb1Heoz0ztK+4m28rW3YVt/tWb9+Ahx76s/xEBH+nTqp5Ec0RdKQUICUm2wuOZabu1w8v06OfEqKQGAtgb30wndFe6LaRcU2bMs2F7XF9nUR+ITCuVGKQGBeAjdow6OlSIEEKEAKTNrIZV++ru7J1aPYaIYh4NuneijEML3RSwkEXiAnPy/9BWkosS3btO1QNrFTPoGbFIL/jqlBIDAXAd+U5/q5tmSj5AQoQJKnYCEH/nahrdm4dQIuQFpnQPzLBO6+tLTkYZ2vWH4Z5X/bdh/uK0oHGC2OAMeg4lKWjcO3yJNXSZFCCVCAFJq4kdseX+27GI1e0kCgMwEPfTi189qsWDOBhyu4L0ofJI0t7sN9uc/YfWE/fwK+AuIrIfl7Gt1DOuhJ4J1an/MfQShVKEBKzdyy3/4FgKsgyyz4vx+Bj2l1/vALQsNyB8X+Fukp0rtIhxL35T7dt30Yql/6yY+Afwg5PT+38ChzApz7ZJ6gLu5lVYB0cZh1tiLgMZDf2epd3oDAdALcgWY6n9o/3U0BXiJ9mjSVuG/7YF9S+UC/6QlwLEqfg9I8+Cc5/B9SpGACFCAFJ2/kun/F9tjq0UsaCMwk4Inn/gV67Yost0PgWQr1Iuk9panFPtgX+5TaF/pPQ+Aj6tbHJDUIBGYS+LHW+BspUjgBCpDCEzhy/61qvytFINCFgIc8+Ba8XdZlnXoI3FWhfFz6Rul20lzEvtgn+2Yfc/FrQD+a7uoaRX+2FIFAFwIf0kr/JkUKJ0ABUngCR+57HO1rRss0EJhFgCEPswjV97knf1+usB4qzVXsm320r7n6iF9xCHA3rDhca7PqBw6+LHhQGExCgAIkCfYonfoXRK6CREFblVEfwClAqkrp1GBur09fKz1Tejdp7mIf7at9tu+5+4t/YQgcF8YMVion4EL1S5XH2Ex4FCD1pPr7CsVFiJrewgbtEPiMQvWQBzVI5QT8AMALFeNzpBukpYh9tc/23TGU4jd+zk/At1O9YP7N2bIRAi9qJM4mwqQAqSvNr1c4LkTUIBAYS4CrH2OxpHwzSt+/J6uXSveQlir23TE4llJjwO/uBPzrdve1WbM1Ah9VwFz9EIRahAKklkwux+EhWG9YXuR/CIwlwFCHsViqeXNHRXKs9B3SO0lLF8fgWByTYys9HvyfTMA5nvxprE+wWwqBI0txFD+7EaAA6cappLU8dvrakhzG18EIfEE9fVOK1EnggQpro/Qx0trEMTk2x1hbbMSzTOCrar4oRSCwnoDvfOW/X+vf53XBBFyAFOw+ro8h8D29x10iBAHZigDDr7ZCUsUb2yiKv5Z+WnoPaa3i2BzjSxWgY1aDVEaAY1RlCQ0Qjp8R8/wAdjCRGQEKkMwSEsido2SHX7oFIX8Z1EPGWA+Ke5DOfk69+MYCnpzZwkm5Y/RQDMfsgkThIxUR4BhVUTIDheLnnH09kC3MZESAAiSjZAR05WbZ4hcDQUBuI/CvWmICnyBUJEcoFg9L2ldta+KYHbsZzB87W+ZG4GI5dKUUgYAJ/ED/vViKVEiAAqTCpI5C+me1/gOtBoHAEkMb6tkJ7qhQ3i09RnpnaaviSelmYBZm0iqH2uI+vraAiGc8gQ7vvkrrMKdVEGoUCpAas7oak++lv/qKpZYJMLShjuzvpTAuk/6uFFkmYBZmYjbL7/B/yQQ4VpWcvXC+Xy1Tr5EilRKgAEma2Oidn64ezpQibRPwQ778ULe2KZQdvR/O52GVn1UYPJxPENaJmZiNGZnVuo95WRCBc+UrD0sVhMbF89p+2DiDqsOnAKk6vZuD+7PN//NfywS4v/647Jfz3t3lqn9IeKXa20uR8QTMxozMyszGr8W7uRPYJAd5XpEgNCxfVuxHS5GKCVCAVJzcUWieB+L5IKOXNA0SYEhDuUl/uFz3sxEepBbpRsCszMzsum3BWoMTmNEhx6wZgCr/2FcyffvdysNsOzwKkDby/xdthEmUYwj8j97zsxPUIAURuIN8fbP0FOldpEg/AmZmdmZolv22Zu3UBD4uB66XIu0R8FDKE9sLe9CIs+iMAiSLNER34j/Ug4cmqEEaI8Ddr8pL+G5y+RLpM6TIYgTM0CzNdDFLbD00gY8M3SH9JSfg4Xd/lNwLHBiEAAXIIJiz6MRPR/dk5CycSe5EOw4wlKGsXD9L7l4kvacUCUPALD8vU8+UIuUQ4MeTcnIVylPP+/Ad7ULZw07GBChAMk5OYNdukL3nSpF2CNyoUH0nNDVI5gTuKv887OSNareTVi0JgvMwrDepXw/LMmstIpkTOE3++RimBmmAgIfcPa+BOAlxRIACZASikcaT0c9vJFbCXFo6SRBukiJ5E/Ck6cvl4kOlSFwCnphu1mYetyesL0rAxYeLkEXtsP2WBHJ99UI59l0p0ggBCpBGEr0mTI+v9DjLNW+xWCkBhjDknVjfNva1ctG3jb2bWmQYAmZt5n7ImXMwTK/0Mg8BjmHzUCtvm3+Ry2+RIg0RaLMAaSjBY0L1hMx/GPM+b9VFwFc+Tq4rpKqi8YPz/HDI5ygqHpwnCAOLmXtIqnPgXAzcPd11JOCruNyOtSOsgld7qnwnz4LQklCAtJTt1Vh9qdO3Z119h6XaCHxCAXkIg5q8BG+Wfk8MLpXuIUXSEnAOnIunpHWD3icQuE7v+2qVGqRSAscornOlSGMEKEAaS/goXBcffzVapqmTAEMX8svrjnLJdyV7h9o7SZE8CDgXvvuOc+Mc5eFVHC9KtMqxrMSsdfPZN8f5s26rslZtBChAasto93jeqlW/JEXqI+BL2R66UF9k5Ub0QLm+UfooKZInAefGOdo3T/ea9eo4Rc68RUGoUF6umBp6PICiRW4jQAFyG4rmFnxAf1pzUbcR8NkK8xopkp7ANnLhpdJPS+8hRfIm4Bx9Ri6+ROrcqUESE/Cx7LzEPtB9eALfkMlXS5FGCVCANJr4Udg+UX3PaHmQhk4GIXD8IL3QySwCPpk9RysdKeVkVhAKEefqxfLVx0fnUItIYgIMw0qcgAjd/75s3ixFGiVAAdJo4teE/Sda9i9MapBKCPDHOn0ij5ALHs6zn9pcBD/6EXiAVncOnUstIgkJ8KNKQvgRun6/bH5cijRMgAKk4eSPQv+e2mdIkToIXKAwGFMrCInkjur33VLf2YUJzQJRuDiHzuW7FIdzqwZJQOBK9elbyKspVfB7ROBatf7hUw3SMgEKkJazvxq7/8CesvqSpYIJcPUjXfL2UteXSX9XitRF4EkKx7l1jrWIJCDAsS0B9Ahdeu6pi5AIpjFZEoFBC5CSwDToqx8E9P0G464t5A/WFlAB8fihds+Xn5+V8lCeGeSXAAAQAElEQVQ7QahUnFvn+M8Vn3OuBhmQAAXIgLAjdfVR2f2QFIHAEgUIO8EKgf/SwrOlSLkEvijXPVRBzVbCG3EI3F1m/aC0V6q9vRSpm4Bz/CqF6Jw791pEBiLA8W0g0JG68XBvHvgZCW6JZilASsxaPJ/fLtO+84sapEAC/EI4bNIeru58UvQgtUhbBJxz5977QIfIWSUQAa7wBgKZwMxz1efVUgQCmwlQgGzGwH9rCHj8+o1rXrNYDgEKkGFydQd18xap503dRS3SJgHn3vvAUQp/OykSnwDHuPiMY/TgZ+u8I4bhTjZZKUsCFCBZpiWpU19X7y+SImUR8NAr7hITP2e7qQtz9kRKLSIQWHq6GFwk9b6hBolIgLv8RYQbybR/0HxCJNuYLZgABUjByevhet9V36ANLpYi5RDgPvnxc/UsdfF56T2lCATWEnDx4X3jmWvfZDkKAY51UbBGM/pCWfYPZGoQCKwSoABZZcHSKoFbtfhEKVIOAYYmxMvVXWXad295o1oPv1LTR1i3EQLeN96kWE+Wep9Rg0QgQAESAWokk+fL7uulCAS2IkABshUS3hgRuFztc6RI/gSukYvnSZHwBDzZ2N+FXw9vGouVEniE4vI+431Hi0hgAufIno95ajoIq6Qi8AN1/FgpAoGxBChAxmLhzRGB16k9S4rkTeA4ubdJioQj4NutvkbmfLvVu6lFINCHgPcZ7zuv1kbel9QggQj4Cv1JgWxhJh4Bz436RjzzWC6BwDQfKUCm0eEzE3i8/vsfKZIvAYZfhc2NHzh3oUz6tpE8cE4gkLkIeN95nrb0vuR9SotIIAIc8wKBjGTGw+TeG8k2ZishQAFSSSIjhvFt2fatedUg/QlE3+I69eBfWtUgAQj4QVmXys4eUgQCIQh4X/I+9eQQxrCxmcAn9L/vrqQGyYyAr3qwr2eWlBzdoQDJMSv5+eRJlX5IYX6e4ZGHInhIAiQWI7CjNj9BerT0TlKkBgL5xOB96p1y5xip9zU1yAIEbtK2PvapQTIi8GP54nkf16tFIDCVAAXIVDx8uIbAH2v5a1IkLwI+ac7Lo/K8eaBc3ih9lBSBQEwCR8i497V91SKLEeDYtxi/GFu/QkZ95ys1S0v8B4FpBChAptHhs7UEfqgX/mXjFrVIHgQ8BOHUPFwp0ott5PVLpZ+W3kOKQGAIAt7XPqOOXiL1PqgGmYOAr4D4Ssgcm7JJBAJ+dpj36QimMVkjAQqQqFmtzvgXFNGLpEgeBE6TGy5C1CA9CaycBB6p7TgJFARkUALe516sHl2IeF/UItKTgI99ngvSczNWj0DAt9w9XHb5gVIQkG4EKEC6cWKtVQKv0iK35hWEDIQhCNOSMPkzhsFMZsMnwxLwUCwPyfI+OWzPdfTGMTCPPD5Lbvy7FIFAZwIUIJ1RseKIgJ838QQtf0+KpCXgIQhpPSir9zvK3XdJmQgsCEg2BDwp3fuk903vo9k4togjA237kYH6oZvJBPwcKu+7k9fgEwiMIUABMgYKb80k8E2t4V/sXIxoEUlAwEMPKAK7g99Lq14mfZIUgUCOBLxveh/1vpqjfzn6dI2c+pQUSUPgq+qW2/QLQmZShDsUIEWkKUsnfQLMhLN0qWHoQTf2fhjc87XqZ6U8DE4QkKwJeB/1vuoHGHrfzdrZTJzjWJgmETeo20dI3apBINCPAAVIP16svSWBl+mlCxE1mUnd7vjK07F1hxgkurvLih/S+Eq1t5ciECiBgPfVV8tR77t3U4tMJ+AhQNPX4NMYBH5HRv9FikBgLgIUIHNhY6MRAZ8IP07LV0qR4Qicp6489EANMoHAw/X+F6UPkiIDE6C7IAS8714uS96X1SATCHxb718gRYYj8Dp19WEpAoG5CVCAzI2ODUcEvqv2MOmPpMgwBBhyMJnzHfTRUdJTpHeRIhAomcBd5bz35Ter3U6KjCfAyfAql9hLn1MHfy5FILAQAQqQhfCx8YiAJ04+dbRME58AQw7GM95Nb18ifboUgUBNBJ6hYC6Seh9Xg6wj8MF1r3kZh8DVMvtI6a1SBAILEaizAFkICRvPSeD92u4dUiQuAZ9gM+Rta8bP1Fufl95TikCgRgIuPryPuxipMb5FYvIx0UMuF7HBttMJuOhw8eEiZPqafAqBDgQoQDpAYpXOBPzLs6+GdN6AFXsTyH74Ve+IFttgZYjKm2TGw6/UIBColoD3cQ/H8rAs7/vVBjpHYAzDmgNaj02eq3U9/EoNAoHFCVCALM4QC6sEbtai54N4XogWkQgE+CO7CpVJuqssWGqLgCeme4K6vwNrI295mR9n4mXff3feEM88llskQAHSYtbjxuxL4Y+N20Wz1v9NkfukQ03z8loR+KSU25QKAtIkAe/7/g74lr1NAlgX9MV6/XUpEpbARpl7ohSZSYAV+hCgAOlDi3W7EjhDKz5FioQl4F+hwlosz5of1OZ5MM8pz3U8hkAUAn5ooeeG+LsRpYOCjHKMDJus/5E5X237gVoEAkEJUIAExYmxNQTepeW/lyLhCLT+x9VF7aXCuYcUgQAEVgnspUUX5k9S27K0fowMmXsPqT5UBr8hRSAQnAAFSHCkGFxD4NlaPl2KLE7AD9s6f3EzRVrYUV57fPfRau8kRcYT4N22CdxZ4fuHn2PU+jujpjk5TxFfI0UWJ+AffM5d3AwWIDCeAAXIeC68G4bAj2Xm0dIrpMhiBFr9ZW9fYfMY5EepRSAAgdkEjtAq/s74u6PFpmSTok30nCT1XI94wrlvrV9PRESSHQEKkOxSUp1DHjv6UEX1HSkyP4HWCpBthOql0s9I7yFFIACB7gT8nfF358XaxN8lNc1Ia8fK0In9lAwyx04QkLgEghYgcV3FesEEvinfD5H+SIr0J3CdNjlL2oqsnDwdqYBbO3lSyAgEghDwd+clsuRCxN8pLTYhZypKHzPVID0JfFnr+2qzRy9oEYFAPAIUIPHYYnlLAr5Ly2/rLV8iV4P0IOBf9PwU2mmb1PJZy8NHaskhceRFwEOxPCTL3628PIvjjY+VJ8UxXbVVF20HK0K3ahAIxCVAARKXL9a3JHC8Xr5IivQj4AKk3xblrX1Hudz6BFohQMokkL3XnpTuyenvlKf+rqmpWlo4ZoZMoIs2X/n495BGsQWBaQQoQKbR4bMYBP5WRt8nRboR8Byak7utWuxa95Pnvr1u67cQFQYEAlEJPFnW/V3bU23NcqqC+6EU6UbgT7Wa536oKVBwuUgCFCBFpq14p317v08WH8UwAXxsmG6S9LJBvf651LfO/N9qEQhAID4Bf9cuUDd+gKG/g1qsTlx8uAipLrAIAfl5XW+OYBeTEJhKgAJkKp5iPizN0Vvk8GHSi6XIdAK1DiW4u8L2ZNFXqb29FIEABIYj4O/cq9Wdv4N3U1uj1HrsDJmrD8iYr36oQSAwLAEKkGF509sqAQ8teohe/ocUGU/gJr39EWlt8nAF9EXpg6QVCCFAoFgC/g5eLu/9nVRTlXgiuuc2VBVUwGBOka3fkSIQSEKAAiQJdjodEfATa39Ny27VIOsInKHXN0prke0UyFFS/+G7i1oEAhBIT+CucsHfyTep9XdUTUEy2VXfzclXeCav0e4nHvZ6uMKnQBMEJA0BCpA03Ol1lcBXtegrIb4iokVkDYGahhDsprgukj5dikAAAvkReKZc8nfU31UtViE1HUNDJcQ3IfDtdn2FPZRN7DRKYJGwKUAWoce2oQh4LojnhPBrzCpRPy/lxNWXRS/5xMbPganpxKbohOA8BCYQ8HfU39Vafig4TnH6WKoGEYGvSQ+SXi9FIJCUAAVIUvx0voaA74pV4G1Y10QQdvFsmSt9aNraoR13UDwIBCCQPwF/V2sZKuljqIcb5U89vof/qS4OlJqJGgQCaQlQgKTlT+9bEni/Xv6lFFlaKn3oQM2TW9k/cyGAHzEJeGJ6DTeLKP1YGiLH35URH5O/oRaBQBYEKECySANOrCHwCi0fLW1dji0UgG/v+Rr57smftd7eU+EhEGiCwNrbZd+u0IiPL9TvUG7fIEMPlX5ZGlQwBoFFCFCALEKPbWMReKoMf1DaqlyowL8tLU1+QQ5/Vvpcaa0POFNoCASaIuDv8soDQ/0dLy34K+Ww5xmqaVIOVdT+m6IGgUA+BChAFsoFG0ck8ATZrmUStkLpJSf0WjuPlZ8iN3x3lb3UIhCAQH0E9lZIl0hLnKtX4jFVqBcS3+XqEFnw/Eo1CATyIkABklc+8GaVgO+I9Vi9/Ji0NSlpzPKOSo7/uHvY3J20PJzQEwQgMDSBO6vDd0mPkfq7r6YIKemYGgLoLTLySOlpUgQCWRKgAMkyLTg1IuCD6KO17AfyqWlCrlCU/yotQfaVkxulj5IiEIBAOwSOUKj+7vsYoMXsxZPpPRQre0cDOOgf7/yQQYqPADAxEY8ABUg8tlgOQ8CXkT2G1belDWMxbysl/FK3jRC+RPoZ6T2kCAQg0B4Bf/d9DDhSofuYoCZraWFe4Y+Vgd+UniRF6iVQRWQUIFWksfogfqgIPZb1c2prFw9nyjnGlZOOF8vJEk465CYCAQhEIuBjwEtl24WIjw1azFZK+HFnEXh+4OITZcAPX1SDQCBvAhQgeecH71YJ+FaCD9HLi6RLS3X+5ztf5RzfEcJe0rALuYtAAAIDEPBQLB8bch6OeYE4+Birpkrx3SP/qcrICKpKAhQgVaa12qC+r8gOkl4mrVE8sTPHuO4op0qceCq3kRgEsAmBMQQ8Kd1XcH1DCh8zxqyS/K1arw48XWTfKUUgUAwBCpBiUoWjIwLfU+snunqytharEv/xzi0g31bXBV+Jt97MjSX+QKAFAr4lt48Ze2QYbI7H2L6Y1q//Z3rjrVIEAkURoAApKl04OyJwrdpflV4urUW+o0Bym2j/Avn0eWmJDx+T2wgEIJCIgI8ZfmbIsxP1P6nbT+mDa6S1yPMVyBukCASKI1BmAVIcZhyOQOC/ZXN/qcf1qilecvpl7u6i6YdXvUItAgEIQGBeAn+nDX0suZvaXOQjuTiygB+ecO5hV69ewAabQiApAQqQpPjpfEEC39X2B0r9q5aaoiWXAuThouh75nuYmxa3Ft6BAAQg0IOAjyW+Wu1jS4/Noq2ay7F23gBdfPyONmbYlSAg5RKgACk3d3i+TOBGNQ+TlnyLxevk/5nSlLKdOj9Keor0LlIEAhDIj0CpHt1VjvvY8ka1PtaoSSafUM/+u6GmOLlFHj9Oyt2uBAEpmwAFSNn5w/tlAjereYz07dISxX+Y/cDFVL7vpo59+19f0tciAgEIQCAKgWfJqo8191SbSnysLfFBfT8SsMOkx0qRJAToNCQBCpCQNLGVkoAvS/+BHPhbaWmSckjAMwXLE81dhGgRgQAEIBCVgI81F6uHp0lTScpj7jwx/0Ab+TlYp6pFIFAFAQqQKtI4XBAF9PRX8tG/srkg0WL24l/jPprAwlBmNgAAEABJREFUy5UhEW9S33eQIhCAAASGIrC9OnqL1Fd/Uwz59BUQH3vlQvbiIbq+6+M52XuKgxDoQYACpAcsVi2GwJvl6W9JfyzNXU6Tg0OPR85tUqgQIB0IsAoEaiPgiekpbnrhY67nguTO07cM9t0ePWwtd1/xDwK9CFCA9MLFygUR+KB8faTU42bVZCtDTp6/vSj4to2e8J7TbTHlFgIBCDRKwLf9PkOxv1J6O+lQ0vPYO5Rbt/Xzn1raT3qZFIFAdQQoQKpLKQGtIeDL+x4360vYa97OanGoe9L7wWCfVeTPk26QIhCAAARyIeBzET9U7zw55GOVmugy1LF3nkC+oo1+RepWDQKB+gj4S985KlaEQIEEPG52H/n9TWlu4isRfpZJbL+erA4ule4lRSAAAQjkSmBvOXaJ9HelseVadZDjM6Q+I7/uL/26FIFAtQQoQKpNLYGtIfCvWvYfNo811mI20mcIwDxO76iNfLeXd6q9kxSBAAQgkDuBO8vBd0uPkfoYpiaaxD4G93XcQ4d/TRv9jxSBQNUEKECqTi/BrSFwlZY9ntZjjbWYXHyXLhcHsRzZV4Y3Sh8lRSAAgYUIsHECAkeoTx/DfCzTYhQ5PorV/kb99+BF2uzxUj/XSg0CgboJUIDUnV+i25LA9Xp5sDSHp8ieLz++LQ0t28jgS6S+jH8PtQgEIACBUgn4GOZj2ZEKIMb5io/BF8h2SvHtgP0g3b9J6UTWfeNclQRifKGrBEVQ1RC4VZE8QfoyaUqJcel/5Y/1ixWYCxE1CAQgAIGiCfhY9lJFcJbUxzg1QSXGsbirg9/RigdIU/qg7hEIDE+AAmR45vP0yDbhCfgXtd+T2VTPCvmQ+g4pQwxXCOkvtiAAAQj0IfBArewhWaGHlXrehUwPLl9Wj74xiK+GaxGBQFsEKEDayjfRbknAk7MfobdukA4p/iN6ZaAO7yg775IOMWFT3bQoxAwBCGRCwJPSPXfuHfLHxz41C4uPxUPfoMR33/LdGf9jYe8xAIFCCVCAFJo43A5G4FRZ8v3W/1vtUBLqcrt/PfNDqp40lOP0AwEIQGBQAuM789VrH/v2GP9x73dDHZO7dPxereTnU31PLQKBZglQgDSbegJfQ8D3nffJ/OVr3ou5uOgfOz9I8M/loB8sONRDu9QdAgEIQCAbAj72eQL5c+SRj4lq5pZFj8ldOvb8Q/vqZ5x4ucs2rAOBpARidk4BEpMutksi8A0564c/fURtTPHlfv9yN28fd9OGfoDhq9TeXopAAAIQaJXAtgr8tVIfE31s1OJc4h+hfGyea+MOG/mBsw/Veq+TIhCAgAhQgAgCAoERAc8F8QRHT1D3fdmXlpZGn4Rrjl3A1MO1ra/SPEgtAgEIQAACywR8TPSx0Sf5y+/0/z/WM0H+Va7sKf2kFIEABEYEKEBGIGggsIaAb9H7aL12QaImqMxzqX87efBm6SnSu0oRCLRBgCgh0J2Aj40f1+pvlPqYqaaXzHNsntWB/fHw3phXV2b5wOcQyJIABUiWacGpDAh4KJaHZH09oC9+6NXnetrbTetfJH2GFIEABCAAgekEnqWPfcy8p9o+cp5WvkYaSl4hQ4dIfyAtUnAaAjEJUIDEpIvt0gn4kv4vKwg/AEvNwnKiLPQZ2uWi4/PaxkWIGgQCEIAABDoQ8DHzYq33NGlX8bH5uK4rT1nvRn12uPQvpbapBoEABNYToABZT2SL17yAwNL/iMFB0rdIF5Wul/g9lMDDrTzs6g6Ldsr2EIAABBoksL1i9nHbx9K7aLmLdD1GT7L1TX2wt3RROzKBQKBuAhQgdeeX6MIQ8C0TfTXiKTJ3i3QeuU4b+eFTaqbKymRKTzifumL1HxIgBCAAgcUJ+FjqBw362DrLmu+m5WP1rPXGfe7htZ5s7r7Gfc57EIDAGgIUIGtgsAiBGQTepc9/TXq1tK94+JULmWnbvVIf+k4pi9xOUiYQCEAAAosRqGzruyseH1t9jNXiRPEx2vP/Jq4w4QNfrd5Pn4WcQyJzCATqJUABUm9uiSwOgXNk1uOLu1zN0Kq3ybRL8n6glu9D//zb1mYBAhCAAARCE/Ax1vPqfMydZPuESR+Mef9Heu+3pZ74rgaBQBACTRihAGkizQQZmMB3ZM/zQvzHrMuQLE9KPFXbjJMn681LpXtIEQhAAAIQiEvAt8X1Dz5PnNDNaXrfx2w1U+Xf9anne/yzWgQCEOhJgAKkJzBWH4hA/t347iavlpv7Sr8hnSYf04c3SdfKjnpxjPSd0jtJEQhAAAIQGIbAndXNe6Q+BntZi7eJiw8XIbe9MWbBPyj5R6ONYz7jLQhAoAMBCpAOkFgFAlMI+H7zu+vzj0onyfpL+i5a/IfriEkb8D4EUhKgbwg0QsDHYB+LfUxeG/KkIbM/1kp/Jf116fVSBAIQmJMABcic4NgMAmsIfE/Lj5A+U+oxwWpuE09qPHn0ahu1L5F+RnoPKQIBCEAAAmkJ/Jy699y+F6ldOSc6Scs+dqu5Ta7Vkm9C8rdqYwq2IdAEgZUvWxPBEiQEIhM4SvbvL/2qdEVO14Jv6+iCw4XHi/XahYgaBAIQgAAEMiBwO/nw11I/dNbHah+zz9DrFfFDDe+jF/5cDQIBCCxKIM8CZNGo2B4C6Qh4Qrn/UH1o5IIv5U+6zD9ahQYCEIAABDIg8ED54CFZj1K7MnTWDzP0EK1v6T0EAhAIRIACJBBIzEBgDYEbtPw46VOlvmTviY6edK6X+QseQgACEGiYgI/VLj72FwPfYvcZatffRERvIRCAwCIEKEAWoce2EJhO4Gh9/EKpL9+rQSAAAQhMJcCHeRDwMftIucItdgUBgUAMAhQgMahiEwKrBL6mxX2kL5f6DipqEAhAAAIQyJCAj9E+VvuY7WN3hi7iUjwCWB6SAAXIkLTpq1UCflihr4T4kj7jiFvdC4gbAhDImYCPzT5G+1jtY3bOvuIbBIonQAFSfArDBoC1qATOk/V7Sf9JikAAAhCAQB4EfEz2sdnH6Dw8wgsIVE6AAqTyBBNedgR8e8cnyKvDpV5Wg0BgMwH+gwAEhiXgY7CPxT4me3nY3ukNAg0ToABpOPmEnpSAb8/LL25JU0DnEIBAwwR8tcPHYB+Ll5aWGiZB6BBIQIACJAF0uoTAiMDKmOO/1OubpQgEIAABCMQl4GOtj7me7+FjcNzesA4BCIwlsEUBMnYN3oQABGIS8F1XXqEO7i/lriuCgEAAAhCIRMDHWB9rfcz1sTdSN5iFAARmEaAAmUWIzyEwDAHfd353dfU2KQIBCEAAAmEJ+NjqY6yPtWEtYw0CEOhNgAKkNzI2gEA0AjfI8h9KD5FeI0UgAIFBCNBJxQR8LPUx1cdWH2MrDpXQIFAOAQqQcnKFp+0QOE2henLkmWoRCEAAAhCYj4CPoT6W+pg6nwW2ik+AHpokQAHSZNoJugACV8vHB0v/RPpDKQIBCEAAAt0I+JjpY6ePoT6WdtuKtSAAgcEIUIAMhnpqR3wIgUkE3qgPfll6hRSBAAQgAIHpBHys9DHTx87pa/IpBCCQjAAFSDL0dAyBzgT8B3VPrf066SYpEpQAxiAAgQoI+NjoY6SPlT5mVhASIUCgXgIUIPXmlsjqInCTwnmO9EDpVVIEAhCAQPkEwkTgY6KPjT5G+lgZxipWIACBaAQoQKKhxTAEohA4W1Z3lZ4sRSAAAQi0TsDHQh8TfWxsnQXxQ6AXgZQrU4CkpE/fEJiPwHe12WHS35N+X4pAAAIQaI2Aj30+BvpY6GNia/ETLwSKJkABUnT6cH5xAkVbeKe830PKg7UEAYEABJoh4GOej30+BjYTNIFCoCYCFCA1ZZNYWiTwNQW9j/Rl0lulCATKIYCnEOhHwMc4H+t8zPOxr9/WrA0BCGRDgAIkm1TgCATmJnCLtjxSup/0SikCAQhAoDYCPrb5GOdjnY95tcU3eDx0CIGUBChAUtKnbwiEJXChzN1b+l4pAgEIQKAWAj6m+djmY1wtMREHBJom0HgB0nTuCb5OAp6Y+bsK7XDpdVIEAhCAQKkEfAzzsczHNB/bSo0DvyEAgXUEKEDWAeElBCoh8GHFcS9pvremlHMIBCAAgQkEfOzyMczHsgmr8DYEIFAqAQqQUjOH3xCYTeBbWsUP53q+2pulCAQgAIHNBDL+z8cqH7N87PIxLGNXcQ0CEJiXAAXIvOTYDgJlENgkN18t3Uv6FSkCAQhAIFcCPkb5WOVjlo9dufqJXxBYhADbigAFiCAgEGiAwEbFeB/pW6UIBCAAgdwI+NjkY5SPVbn5hj8QgEBgAhQggYFiriMBVktB4Ifq9OnSQ6TXSBEIQAACqQn4WORjko9NPkal9of+IQCBAQhQgAwAmS4gkBmB0+SPJ3e61SLSGgHihUAmBHwM4liUSTJwAwJDEqAAGZI2fUEgHwJXyxX/6vhMtTdKEQhAAAJDEfAxx8ceH4N8LBqq3xz6wQcIQEAEKEAEAYFAwwSOUux7SBl3LQgIBCAQnYCPNT7m+NgTvTM6gAAE8iSQpgDJkwVeQaBVAit3nnmtAHDnGUFAIACB4AR8bPExxne58jEneAcYhAAEyiFAAVJOrvAUAkEITDDie+8/T5/53vtXqUUgAAEIhCLgY4qPLT7G+FgTyi52IACBQglQgBSaONyGQCQCfvrwrrLN04cFAYFAYAItmvOxxMcUH1tajJ+YIQCBMQQoQMZA4S0INE7gu4r/cOmTpNdLEQhAAAJ9CfjY4WOIjyU+pvTdnvUhEJgA5nIiQAGSUzbwBQJ5EXiP3NldeqEUgQAEINCVgI8ZPnb4GNJ1G9aDAAQaIkAB0lCyHSoKgZ4ErtT6+0lfIr1VikAAAhCYRMDHCB8rfMzwsWPSerwPAQg0ToACpPEdgPAh0IGATypeqvU4qRCEBYRNIVAzARccPkb4WOFjRs2xEhsEILAgAQqQBQGyOQQaIuBhFfdWvO+WIhCAAARWCPiY4GODjxEr72XW4g4EIJATAQqQnLKBLxDIn8D35eKTpYdJmVgqCAgEGibgY4CPBT4m+NjQMApChwAEJhIY8wEFyBgovAUBCMwkcLLW4NaagoBAoFECvq2ujwE+FjSKgLAhAIF5CVCAzEuO7SDQj0CNa699uNhNNQZITBCAwFYE/F33AwX9YEEfA7ZagTcgAAEIzCJAATKLEJ9DAALTCGzSh6+V3k/6FSkCgQwJ4FIgAv6O+7vu77y/+4HMYgYCEGiNAAVIaxknXgjEIbBRZu8jfbMUgQAE6iPg77a/4/6u1xcdEcUjgGUIjCFAATIGCm9BAAJzEfihtnqW9MHSq6UIBCBQPgF/l/2d9nfb3/HyIyICCEAgOQEKkGFSQC8QaInAmQr2XtLTpAgEIFAuAX+H/V32d7rcKPAcAhDIjgAFSHYpwSEIVEHgGkVxiPRp0hukCYWuIQCBngT8nfV3199hf5d7bs7qEIAABKYToBUQjg0AABAASURBVACZzodPIQCBxQj8gzbfU8q4cUFAIFAAAX9X/Z31d3dxd7EAAQhAYAwBCpAxUHgLAhAISsB3ztlLFl8l/bEUgQAE8iPg76a/o/6u+jubn4d4BAEI9CKQ88oUIDlnB98gUA+BmxXKC6T7S78lRSAAgXwI+Dvp76a/o/6u5uMZnkAAAlUSoACpMq0EtUqApcwInCd/PKn1w2oRCEAgPQF/F/2d9HczvTd4AAEINEGAAqSJNBMkBLIicJ28OVz6RKmX1SBVEiConAn4u+fvoL+LXs7ZV3yDAAQqI0ABUllCCQcCBRF4n3z1g80uVItAAALDEfB3zt89fweH65WeBiVAZxDImQAFSM7ZwTcI1E/gSoW4n/RF0lukCAQgEI+Av2P+rvk75+9evJ6wDAEIQGAKgcoLkCmR8xEEIJALgVvlyN9I95F+TYpAAALhCfi75e+Yv2v+zoXvAYsQgAAEOhKgAOkIitUgAIGeBPqvfrE22V16tBSBAATCEfB3yt8tf8fCWcUSBCAAgTkJUIDMCY7NIACBKAT8BOanyvJh0u9KEQhAYA4Co038HfJ3yd8pf7dGb9NAAAIQSEuAAiQtf3qHAATGEzhZb+8qPVuKQAAC/Qn4u+PvkL9L/bdmCwhAYF4CbNeBAAVIB0isAgEIJCFwlXo9UPps6Y+kCAQgMJuAvyv+zvi74+/Q7C1YAwIQgMDABChABgbeTHcECoEwBDbJzOul95VeIUUgAIHJBPwd8XfF3xl/dyavyScQgAAEEhKgAEkIn64hAIHOBHxitafW/nspJ1aCME34rDkC/k74u+HviL8rzQEgYAhAoCwCFCBl5QtvIdAygZsU/J9KHyK9WopAAAJLS/4u+Dvh74a/IzBJS4DeIQCBDgQoQDpAYhUIQCArAmfKm3tJmVwrCEjTBPwd8HfB34mmQRA8BCBQFoE4BUhZDPAWAhAoj8A1ctm3F/0DtT+QIhBoiYD3ee/7/g74u9BS7MQKAQhUQIACpIIkEgIE1hJobPntivc+Uh6wJghIEwS8r3uf977fRMAECQEI1EeAAqS+nBIRBFoj8DUFvI/05dIfSxEIpCIQs1/v297Hva97n4/ZF7YhAAEIRCVAARIVL8YhAIGBCNyifl4o3V/6LSkCgZoIeJ/2vu193Pt6TbERCwQCEcBMSQQoQErKFr5CAAKzCJynFTwp95/VIhCogYD3Ze/T3rdriIcYIAABCCxRgFS2ExAOBCCwdJ0Y/Lb0cKmX1SAQKI6A913vw96XvVxcADgMAQhAYBIBCpBJZHgfAhAoncCHFcCQvxyrOwQCQQj4aof3Xe/DQQxiBAIQgEBOBChAcsoGvkAAAqEJrB07f3No49iDQGAC3kc9z8PzPbzvBjZfszligwAESiJAAVJStvAVAhCYh8DK3YPur425e5AgIFkS8L7pfdR3uvI+m6WTOAUBCEBgKwJzvEEBMgc0NoEABIok4Ocn7C7P3yZFIJATAe+T3je9j+bkF75AAAIQiEKAAiQKVow2SICQyyBwg9z8Q+kh0mukCARSEvA+6H3R+6T3zZS+0DcEIACBwQhQgAyGmo4gAIGMCJwmXzzJ90y1SPEEigzA+573Qe+LRQaA0xCAAATmJUABMi85toMABEoncLUCeLD0T6Q/lCIQGIKA9zXvc973vA8O0Sd9QCAeASxDYA4CFCBzQGMTCECgKgJvVDS/LL1CikAgJgHvY97XvM/F7AfbEIAABLImQAESJj1YgQAEyibgE8M9FcLrpZukCARCEvA+5X3L+5j3tZC2sQUBCECgOAIUIMWlDIchAIEtCQR7dZMsPVt6oPQqKQKBEAS8L3mf8r7lfSyETWxAAAIQKJoABUjR6cN5CEAgAoGzZXNX6clSBAKLEPA+5H3J+9QidvLdFs8gAAEIzEGAAmQOaGwCAQhUT+C7ivAw6VOl35ciEOhDwPuM9x3vQ96X+mzLuhCAAAQ6ESh5JQqQkrOH7xCAQGwCR6uDPaQ8IE4QkE4EvK94n/G+02kDVoIABCDQGgEKkNYyXl28BASB6AS+ph72kb5MeqsUgcA4At43vI94X/E+M24d3oMABCAAARGgABEEBAIQgMAMArfo8yOl+0mvlCImgK4Q8D7hfcP7iPeVlfdpIQABCEBgDAEKkDFQeAsCEIDABAIX6v17S98nRSBgAt4XvE943/BrFAKDEKATCJRMgAKk5OzhOwQgkIKAJxg/UR0fLr1OirRJwLn3PuB9wftEmxSIGgIQgMAcBAovQOaImE0gAAEIhCHwYZm5l/Q8KdIWAefcufc+0FbkRAsBCEAgAAEKkAAQMQGBJgkQtAl8S//tL32B9GYpUjcB59i5ds6d+7qjJToIQAACkQhQgEQCi1kIQKAZAj9WpK+S7iX9ihSpk4Bz6xw718550ijpHAIQgEDJBChASs4evkMAAjkR2Chn7iN9qxSpi4Bz6tw6x3VFRjQQgEBfAqwfgAAFSACImIAABCAwIvBDtU+XHiK9RoqUTcA5dC6dU+e27GjwHgIQgEAmBChAMklEcW7gMAQgMI3AafrQk5TPVIuUScC5cw6dyzIjwGsIQAACmRKgAMk0MbgFAQgUT+BqRfBg6TOlN0qDCYaiEnCunDPnzjmM2hnGIQABCLRIgAKkxawTMwQgMCSBo9TZHlLmDwhC5uIcOVfOWeau4l4iAnQLAQgEIEABEgAiJiAAAQjMILByB6XXar1NUiQvAs6Jc+O7XDlXeXmHNxCAAAQqIzBfAVIZBMKBAAQgMAABP0PieernQOlVUiQPAs6Fc+LcOEd5eIUXEIAABComQAFScXIJrU4CRFU8gbMVwa7Sk6VIWgLOgXPhnKT1hN4hAAEINESAAqShZBMqBCCQDYHvypPDpE+WXi9FhiVg5mbvHDgXXXtnPQhAAAIQCECAAiQARExAAAIQmJPAu7Xd7tILpcgwBMzazM1+mB7pBQIQCEAAEzURoACpKZvEAgEIlEjgSjm9n/Ql0lulSBwCZmvGZm3mcXrBKgQgAAEIzCRAATITUV4r4A0EIFAlAZ8cv1SRcXIsCBHEBYfZmrFZR+gCkxCAAAQg0JUABUhXUqwHAQi0TmCI+D086N7qiOFBghBIzNJMzTaQScxAAAIQgMAiBChAFqHHthCAAATCE/i+TDJBWhAWFE8u9yRzszTTBc2xeVoC9A4BCNREgAKkpmwSCwQgUBMBbhE7fzZ9W13fXtcM57fClhCAAAQgsLQUgQEFSASomIQABCAQiMDah+TdFMhmzWbMyA8U9IMFza7mWIkNAhCAQLEEKECKTR2OD0yA7iCQisAmdfxa6f2kX5Ei4wmYjRmZlZmNX4t3IQABCEAgOQEKkOQpwAEIQAACnQhs1Fr3kR4lbUxmhmsmZmNGM1dmBQhAAAIQSEuAAiQtf3qHAAQg0IfAD7XyM6UPll4tbV3MwCzMxGxa50H8EAhPAIsQiECAAiQCVExCAAIQiEzgTNm/l/Q0aavi2M3ALFplQNwQgAAEiiRAAdItbawFAQhAIDcC18ihQ6RPl94gbUUcq2N27GbQStzECQEIQKAaAhQg1aSSQCBQKwHimkHgrfp8T2kL8x8co2N1zAoZgQAEIACBEglQgJSYNXyGAAQgsCUB3wFqL731KumPpbWJY3JsjtGx1hZfvvHgGQQgAIEIBChAIkDFJAQgAIEEBG5Wny+Q7i/9lrQWcSyOybE5xlriIg4IQAACUwnU/CEFSM3ZJTYIQKBFAucpaE/O/rDa0sUxOBbHVHos+A8BCEAAAiMCFCAjEDS5EsAvCEBgDgLXaZvDpU+UellNUWKf7btj8HJRzuMsBCAAAQhMJ0ABMp0Pn0IAAhAomcD75Lwf0Heh2v6SZgv7ap/texoP6BUCEIAABKISoACJihfjEIAABJITuFIe7Cc9UnqLNFexb/bRvtrnXP3ELwgMQoBOIFAzAQqQmrNLbBCAAASWCdyq5mXSfaRfk+Ym9sm+2Uf7mpt/+AMBCEAAAgEJZF6ABIwUUxCAAAQgcLEQ7C49WpqL2Bf7ZN9y8Qk/IAABCEAgIgEKkIhwMQ2BogngfK0EblBgT5UeJv2uNJW4b/tgX+xTKj/oFwIQgAAEBiZAATIwcLqDAAQgkAmBk+XHrtKzpUOL+3Tf9mHovovoDychAAEI1EyAAqTm7BIbBCAAgekErtLHB0qfLf2RNLa4D/flPt137P6wDwEIQKAvAdYfgAAFyACQ6QICEIBAxgQ2ybfXS+8rvUIaS2zbfbgv9xmrH+xCAAIQgEDmBChAMk9QMvfoGAIQaI2AC4Q9FfQbpSELBNuyTdt2HzKPQAACEIBAywQoQFrOPrFDAAJZEkjo1E3q+0+kD5FeLV1UbMO2bNO2F7XH9hCAAAQgUAEBCpAKkkgIEIAABAITOFP27iU9TTqveFvbsK15bbAdBIYmQH8QgMAABChABoBMFxCAAAQKJHCNfD5E+ofSPrfJ9brextvahjZHIAABCEAAAqsExhcgq5+zBAEIQAACbRN4m8Lv+qBAP0zQ63obbYZAAAIQgAAEtiZAAbI1E96BQFICdA6BDAl8TT7tI3259MfS9eL3/JnX8brrP+c1BCAAAQhA4DYCFCC3oWABAhCAAASmELhFn71Qur/0W9IV8bLf82deZ+X9Elt8hgAEIACBAQhQgAwAmS4gAAEIVETgPMXiyeUfVmv1st/TSwQCEIDAvATYriUCFCAtZZtYIQABCIQhcJ3MHD5SL2sRgQAEIAABCHQjQAHSjdNga9ERBCAAAQhAAAIQgAAEaiZAAVJzdokNAhDoQ4B1IQABCEAAAhAYgAAFyACQ6QICEIAABCAAgWkE+AwCEGiJAAVIS9kmVghAAAIQgAAEIAABCKwlkGCZAiQBdLqEAAQgAAEIQAACEIBAqwQoQFrNPHGvJ8BrCEAAAhCAAAQgAIEBCFCADACZLiAAAQhAYBoBPoMABCAAgZYIUIC0lG1ihQAEIAABCEAAAmsJsAyBBAQoQBJAp0sIQAACEIAABCAAAQi0SoACZDnz/A8BCEAAAhCAAAQgAAEIDECAAmQAyHQBAQhMI8BnEIAABCAAAQi0RIACpKVsEysEIAABCEBgLQGWIQABCCQgQAGSADpdQgACEIAABCAAAQi0TaDl6ClAWs4+sUMAAhCAAAQgAAEIQGBgAhQgAwOnu/UEeA0BCEAAAhCAAAQg0BIBCpCWsk2sEIAABNYSYBkCEIAABCCQgAAFSALodAkBCEAAAhCAQNsEiB4CLROgAGk5+8QOAQhAAAIQgAAEIACBgQkkLkAGjpbuIAABCEAAAhCAAAQgAIGkBChAkuKncwgkJEDXEIAABCAAAQhAIAEBCpAE0OkSAhCAAATaJkD0EIAABFomQAHScvaJHQIQgAAEIAABCLRFgGgzIEABkkEScAECEIAABCAAAQhAAAKtEKAAaSXT6+PkNQQgAAEIQAACEIAABBLAow1JAAACOElEQVQQoABJAJ0uIQCBtgkQPQQgAAEIQKBlAhQgLWef2CEAAQhAAAJtESBaCEAgAwIUIBkkARcgAAEIQAACEIAABCBQN4HV6ChAVlmwBAEIQAACEIAABCAAAQhEJkABEhkw5iGwngCvIQABCEAAAhCAQMsEKEBazj6xQwACEGiLANFCAAIQgEAGBChAMkgCLkAAAhCAAAQgAIG6CRAdBFYJUICssmAJAhCAAAQgAAEIQAACEIhMgAIkMuD15nkNAQhAAAIQgAAEIACBlglQgLScfWKHQFsEiBYCEIAABCAAgQwIUIBkkARcgAAEIAABCNRNgOggAAEIrBKgAFllwRIEIAABCEAAAhCAAATqIpBhNBQgGSYFlyAAAQhAAAIQgAAEIFArAQqQWjNLXOsJ8BoCEIAABCAAAQhAIAMCFCAZJAEXIAABCNRNgOggAAEIQAACqwQoQFZZsAQBCEAAAhCAAATqIkA0EMiQAAVIhknBJQhAAAIQgAAEIAABCNRKoJUCpNb8ERcEIAABCEAAAhCAAASKIkABUlS6cBYCJRLAZwhAAAIQgAAEILBKgAJklQVLEIAABCAAgboIEA0EIACBDAlQgGSYFFyCAAQgAAEIQAACECibAN5PJkABMpkNn0AAAhCAAAQgAAEIQAACgQlQgAQGirn1BHgNAQhAAAIQgAAEIACBVQIUIKssWIIABCBQFwGigQAEIAABCGRIgAIkw6TgEgQgAAEIQAACZRPAewhAYDKB/wsAAP//T8zIFQAAAAZJREFUAwANXzUTBWdZVgAAAABJRU5ErkJggg==;opacity=60;" parent="eHzWIXnUUWUC3OV752Zy-106" vertex="1">
          <mxGeometry width="64" height="64" as="geometry" />
        </mxCell>
        <mxCell id="eHzWIXnUUWUC3OV752Zy-102" value="" style="endArrow=none;html=1;rounded=0;opacity=60;" parent="eHzWIXnUUWUC3OV752Zy-106" edge="1">
          <mxGeometry width="50" height="50" relative="1" as="geometry">
            <mxPoint x="125" y="81" as="sourcePoint" />
            <mxPoint x="180" y="42" as="targetPoint" />
          </mxGeometry>
        </mxCell>
        <mxCell id="eHzWIXnUUWUC3OV752Zy-103" value="" style="endArrow=none;html=1;rounded=0;opacity=60;" parent="eHzWIXnUUWUC3OV752Zy-106" edge="1">
          <mxGeometry width="50" height="50" relative="1" as="geometry">
            <mxPoint x="70" y="81" as="sourcePoint" />
            <mxPoint x="125" y="81" as="targetPoint" />
          </mxGeometry>
        </mxCell>
        <mxCell id="eHzWIXnUUWUC3OV752Zy-105" value="Implicit User &amp;gt; Auth&lt;div&gt;Authorization Code &amp;gt; API&lt;/div&gt;&lt;div&gt;Device Flow &amp;gt; MCP/LLM&lt;/div&gt;" style="text;html=1;align=left;verticalAlign=middle;whiteSpace=wrap;rounded=0;fontSize=10;" parent="eHzWIXnUUWUC3OV752Zy-106" vertex="1">
          <mxGeometry x="136" width="130.22" height="44" as="geometry" />
        </mxCell>
        <mxCell id="DRkd63o85t19rOmhndDE-7" value="" style="ellipse;whiteSpace=wrap;html=1;fillColor=none;fontColor=none;labelBorderColor=#000066;textOpacity=30;noLabel=1;strokeColor=#CC0000;opacity=90;shadow=0;dashed=1;dashPattern=8 8;" parent="1" vertex="1">
          <mxGeometry x="473" y="224.87" width="124.72" height="100.78" as="geometry" />
        </mxCell>
        <mxCell id="PS6ImIJTn3wHpI6E-aGu-1" style="edgeStyle=orthogonalEdgeStyle;rounded=0;orthogonalLoop=1;jettySize=auto;html=1;entryX=0.072;entryY=0.785;entryDx=0;entryDy=0;entryPerimeter=0;" edge="1" parent="1" source="eHzWIXnUUWUC3OV752Zy-15" target="eHzWIXnUUWUC3OV752Zy-21">
          <mxGeometry relative="1" as="geometry">
            <Array as="points">
              <mxPoint x="660" y="418" />
              <mxPoint x="660" y="462" />
            </Array>
          </mxGeometry>
        </mxCell>
      </root>
    </mxGraphModel>
  </diagram>
</mxfile>
